<?xml version="1.0" encoding="utf-8"?>
<svg viewBox="-26.185 0.1419999999999999 500 139.688" xmlns="http://www.w3.org/2000/svg">
  <defs>
    <clipPath id="clipPath1828" clipPathUnits="userSpaceOnUse">
      <path id="path1826" d="M 0,552.236 H 722.315 V 0 H 0 Z"/>
    </clipPath>
    <clipPath id="clipPath1844" clipPathUnits="userSpaceOnUse">
      <path id="path1842" d="M 12.497,12.497 H 709.82 V 539.74 H 12.497 Z"/>
    </clipPath>
    <clipPath id="clipPath1856" clipPathUnits="userSpaceOnUse">
      <path id="path1854" d="M 0,552.236 H 722.315 V 0 H 0 Z"/>
    </clipPath>
    <clipPath id="clipPath1878" clipPathUnits="userSpaceOnUse">
      <path id="path1876" d="M 12.497,12.497 H 709.82 V 539.74 H 12.497 Z"/>
    </clipPath>
    <clipPath id="clipPath1894" clipPathUnits="userSpaceOnUse">
      <path id="path1892" d="M 0,552.236 H 722.315 V 0 H 0 Z"/>
    </clipPath>
    <clipPath id="clipPath1906" clipPathUnits="userSpaceOnUse">
      <path id="path1904" d="M 12.497,12.497 H 709.82 V 539.74 H 12.497 Z"/>
    </clipPath>
    <clipPath id="clipPath1922" clipPathUnits="userSpaceOnUse">
      <path id="path1920" d="M 0,552.236 H 722.315 V 0 H 0 Z"/>
    </clipPath>
    <clipPath id="clipPath1934" clipPathUnits="userSpaceOnUse">
      <path id="path1932" d="M 12.497,12.497 H 709.82 V 539.74 H 12.497 Z"/>
    </clipPath>
    <clipPath id="clipPath1946" clipPathUnits="userSpaceOnUse">
      <path id="path1944" d="M 0,552.236 H 722.315 V 0 H 0 Z"/>
    </clipPath>
    <clipPath id="clipPath1958" clipPathUnits="userSpaceOnUse">
      <path id="path1956" d="M 12.497,12.497 H 709.82 V 539.74 H 12.497 Z"/>
    </clipPath>
    <clipPath id="clipPath1990" clipPathUnits="userSpaceOnUse">
      <path id="path1988" d="M 0,552.236 H 722.315 V 0 H 0 Z"/>
    </clipPath>
    <clipPath id="clipPath2004" clipPathUnits="userSpaceOnUse">
      <path id="path2002" d="M 12.497,12.497 H 709.82 V 539.74 H 12.497 Z"/>
    </clipPath>
  </defs>
  <g transform="matrix(1.333333, 0, 0, -1.333333, -330.707819, 566.261988)" id="g10">
    <g id="g1822">
      <g clip-path="url(#clipPath1828)" id="g1824">
        <g transform="translate(509.5439,279.7236)" id="g1830"/>
        <g transform="translate(513.2207,279.6084)" id="g1834"/>
      </g>
    </g>
    <g id="g1838">
      <g clip-path="url(#clipPath1844)" id="g1840">
        <g transform="translate(517.3193,278.0771)" id="g1846"/>
      </g>
    </g>
    <g id="g1850">
      <g clip-path="url(#clipPath1856)" id="g1852">
        <g transform="translate(521.6094,279.6084)" id="g1858"/>
        <g transform="translate(523.7275,276.3545)" id="g1862"/>
        <g transform="translate(529.7637,279.6084)" id="g1868"/>
      </g>
    </g>
    <g id="g1872">
      <g clip-path="url(#clipPath1878)" id="g1874">
        <g transform="translate(534.9551,279.7949)" id="g1880"/>
        <g transform="translate(538.5703,276.6396)" id="g1884"/>
      </g>
    </g>
    <g id="g1888">
      <g clip-path="url(#clipPath1894)" id="g1890">
        <g transform="translate(543.0156,279.7236)" id="g1896"/>
      </g>
    </g>
    <g id="g1900">
      <g clip-path="url(#clipPath1906)" id="g1902">
        <g transform="translate(544.1729,278.231)" id="g1908"/>
        <g transform="translate(549.9229,276.2998)" id="g1912"/>
      </g>
    </g>
    <g id="g1916">
      <g clip-path="url(#clipPath1922)" id="g1918">
        <g transform="translate(553.1992,279.6084)" id="g1924"/>
      </g>
    </g>
    <g id="g1928">
      <g clip-path="url(#clipPath1934)" id="g1930">
        <g transform="translate(555.7129,278.0771)" id="g1936"/>
      </g>
    </g>
    <g id="g1940">
      <g clip-path="url(#clipPath1946)" id="g1942">
        <g transform="translate(560.9746,279.7236)" id="g1948"/>
      </g>
    </g>
    <g id="g1952">
      <g clip-path="url(#clipPath1958)" id="g1954">
        <g transform="translate(562.1318,278.231)" id="g1960"/>
        <g transform="translate(452.0098,283.6655)" id="g1964"/>
        <g transform="translate(494.8926,253.6318)" id="g1968"/>
        <g transform="translate(518.1777,253.6318)" id="g1972"/>
        <g transform="translate(594.7832,273.1875)" id="g1976"/>
        <g transform="translate(480.6846,273.1875)" id="g1980"/>
      </g>
    </g>
    <g id="g1984">
      <g clip-path="url(#clipPath1990)" id="g1986">
        <g transform="translate(608.4102,283.4893)" id="g1994"/>
      </g>
    </g>
    <g id="g1998">
      <g clip-path="url(#clipPath2004)" id="g2000">
        <g transform="translate(566.082,257.0293)" id="g2006"/>
      </g>
    </g>
    <path id="path1812" style="fill: rgb(255, 255, 255); fill-opacity: 1; fill-rule: nonzero; stroke: none;" d="M 380.937 401.174 C 380.519 401.174 380.182 401.101 379.925 400.956 C 379.671 400.811 379.47 400.613 379.331 400.367 C 379.191 400.12 379.097 399.832 379.051 399.506 C 379.002 399.18 378.98 398.84 378.98 398.484 C 378.98 398.13 379.002 397.785 379.051 397.449 C 379.097 397.112 379.191 396.815 379.331 396.555 C 379.47 396.296 379.671 396.088 379.925 395.933 C 380.182 395.777 380.519 395.699 380.937 395.699 C 381.354 395.699 381.694 395.777 381.948 395.933 C 382.204 396.088 382.405 396.296 382.542 396.555 C 382.682 396.815 382.778 397.112 382.822 397.449 C 382.871 397.785 382.893 398.13 382.893 398.484 C 382.893 398.84 382.871 399.18 382.822 399.506 C 382.778 399.832 382.682 400.12 382.542 400.367 C 382.405 400.613 382.204 400.811 381.948 400.956 C 381.694 401.101 381.354 401.174 380.937 401.174 M 380.937 395.11 C 380.393 395.11 379.944 395.201 379.595 395.381 C 379.241 395.562 378.965 395.806 378.764 396.113 C 378.566 396.421 378.427 396.779 378.352 397.187 C 378.276 397.596 378.238 398.029 378.238 398.484 C 378.238 398.928 378.276 399.348 378.352 399.749 C 378.427 400.148 378.566 400.497 378.764 400.795 C 378.965 401.091 379.241 401.329 379.595 401.502 C 379.944 401.677 380.393 401.764 380.937 401.764 C 381.482 401.764 381.929 401.677 382.281 401.502 C 382.632 401.329 382.909 401.091 383.109 400.795 C 383.307 400.497 383.446 400.148 383.521 399.749 C 383.597 399.348 383.637 398.928 383.637 398.484 C 383.637 398.029 383.597 397.596 383.521 397.187 C 383.446 396.779 383.307 396.421 383.109 396.113 C 382.909 395.806 382.632 395.562 382.281 395.381 C 381.929 395.201 381.482 395.11 380.937 395.11"/>
    <path id="path1816" style="fill: rgb(255, 255, 255); fill-opacity: 1; fill-rule: nonzero; stroke: none;" d="M 390.135 401.165 C 389.711 401.165 389.37 401.093 389.113 400.948 C 388.857 400.801 388.658 400.605 388.519 400.359 C 388.381 400.109 388.287 399.825 388.239 399.503 C 388.191 399.179 388.168 398.84 388.168 398.486 C 388.168 398.131 388.191 397.785 388.239 397.45 C 388.287 397.114 388.381 396.815 388.519 396.557 C 388.658 396.297 388.857 396.09 389.113 395.935 C 389.37 395.78 389.711 395.701 390.135 395.701 C 390.553 395.701 390.89 395.78 391.146 395.935 C 391.402 396.09 391.603 396.297 391.741 396.557 C 391.881 396.815 391.974 397.114 392.022 397.45 C 392.07 397.785 392.092 398.131 392.092 398.486 C 392.092 398.84 392.07 399.179 392.022 399.503 C 391.974 399.825 391.881 400.109 391.741 400.359 C 391.603 400.605 391.402 400.801 391.146 400.948 C 390.89 401.093 390.553 401.165 390.135 401.165 M 387.436 398.486 C 387.436 398.928 387.475 399.35 387.551 399.751 C 387.626 400.149 387.764 400.497 387.963 400.795 C 388.165 401.093 388.44 401.329 388.791 401.503 C 389.143 401.677 389.59 401.764 390.135 401.764 C 390.679 401.764 391.126 401.677 391.474 401.503 C 391.824 401.329 392.098 401.093 392.299 400.795 C 392.498 400.497 392.635 400.149 392.711 399.751 C 392.787 399.35 392.825 398.928 392.825 398.486 C 392.825 398.047 392.789 397.641 392.716 397.264 C 392.643 396.888 392.518 396.56 392.345 396.28 C 392.17 396.001 391.94 395.781 391.651 395.615 C 391.364 395.45 391.006 395.358 390.582 395.339 L 390.582 395.32 C 390.727 395.188 390.932 395.086 391.195 395.017 C 391.458 394.947 391.755 394.906 392.084 394.894 C 392.274 394.894 392.479 394.903 392.701 394.922 L 392.701 394.284 C 392.587 394.272 392.475 394.263 392.365 394.256 C 392.254 394.25 392.144 394.246 392.037 394.246 C 391.58 394.253 391.167 394.322 390.8 394.456 C 390.433 394.589 390.155 394.807 389.964 395.112 C 389.456 395.132 389.04 395.234 388.715 395.42 C 388.387 395.608 388.13 395.854 387.939 396.157 C 387.751 396.461 387.619 396.813 387.546 397.213 C 387.474 397.612 387.436 398.036 387.436 398.486"/>
    <path id="path1820" style="fill: rgb(255, 255, 255); fill-opacity: 1; fill-rule: nonzero; stroke: none;" d="M 396.4 395.701 C 396.767 395.701 397.059 395.76 397.278 395.876 C 397.498 395.994 397.663 396.143 397.773 396.323 C 397.882 396.505 397.953 396.697 397.986 396.903 C 398.019 397.109 398.034 397.303 398.034 397.488 L 398.034 401.67 L 398.738 401.67 L 398.738 397.488 C 398.738 396.652 398.537 396.046 398.144 395.671 C 397.745 395.3 397.157 395.112 396.368 395.112 C 395.577 395.112 394.987 395.3 394.594 395.671 C 394.2 396.046 394.002 396.652 394.002 397.488 L 394.002 401.67 L 394.706 401.67 L 394.706 397.488 C 394.706 397.265 394.728 397.048 394.77 396.837 C 394.812 396.624 394.893 396.436 395.018 396.266 C 395.139 396.098 395.314 395.963 395.536 395.859 C 395.757 395.753 396.045 395.701 396.4 395.701"/>
    <path id="path1832" style="fill: rgb(255, 255, 255); fill-opacity: 1; fill-rule: nonzero; stroke: none;" d="M 404.097 401.043 L 400.78 401.043 L 400.78 398.876 L 403.669 398.876 L 403.669 398.249 L 400.78 398.249 L 400.78 395.834 L 404.143 395.834 L 404.143 395.208 L 400.077 395.208 L 400.077 401.67 L 404.097 401.67 Z"/>
    <path id="path1836" style="fill: rgb(255, 255, 255); fill-opacity: 1; fill-rule: nonzero; stroke: none;" d="M 410.465 400.842 L 409.258 397.536 L 411.634 397.536 L 410.474 400.842 Z M 411.785 396.936 L 409.105 396.936 L 408.505 395.206 L 407.756 395.206 L 410.057 401.716 L 410.921 401.716 L 413.155 395.206 L 412.376 395.206 Z"/>
    <path id="path1848" style="fill: rgb(255, 255, 255); fill-opacity: 1; fill-rule: nonzero; stroke: none;" d="M 417.563 398.19 L 417.563 395.833 L 419.502 395.833 C 419.901 395.833 420.208 395.93 420.427 396.124 C 420.646 396.316 420.755 396.614 420.755 397.012 C 420.755 397.391 420.641 397.684 420.414 397.887 C 420.186 398.09 419.839 398.19 419.378 398.19 Z M 420.565 399.929 C 420.565 400.272 420.463 400.542 420.257 400.743 C 420.051 400.943 419.749 401.041 419.347 401.041 L 417.563 401.041 L 417.563 398.817 L 419.347 398.817 C 419.749 398.817 420.051 398.907 420.257 399.089 C 420.463 399.269 420.565 399.549 420.565 399.929 M 420.213 398.514 C 420.631 398.423 420.951 398.24 421.169 397.958 C 421.388 397.676 421.497 397.333 421.497 396.927 C 421.497 396.387 421.34 395.966 421.027 395.661 C 420.712 395.358 420.239 395.206 419.607 395.206 L 416.86 395.206 L 416.86 401.67 L 419.414 401.67 C 420.051 401.67 420.523 401.518 420.837 401.223 C 421.149 400.923 421.307 400.529 421.307 400.034 C 421.307 399.653 421.215 399.332 421.032 399.07 C 420.847 398.807 420.573 398.626 420.213 398.533 Z"/>
    <path id="path1860" style="fill: rgb(255, 255, 255); fill-opacity: 1; fill-rule: nonzero; stroke: none;" d="M 424.993 400.842 L 423.788 397.536 L 426.164 397.536 L 425.002 400.842 Z M 426.315 396.936 L 423.634 396.936 L 423.036 395.206 L 422.287 395.206 L 424.587 401.716 L 425.451 401.716 L 427.685 395.206 L 426.906 395.206 Z"/>
    <path id="path1864" style="fill: rgb(255, 255, 255); fill-opacity: 1; fill-rule: nonzero; stroke: none;" d="M 428.662 395.206 L 428.662 401.668 L 429.364 401.668 L 429.364 398.875 L 432.69 398.875 L 432.69 401.668 L 433.396 401.668 L 433.396 395.206 L 432.69 395.206 L 432.69 398.247 L 429.364 398.247 L 429.364 395.206 Z"/>
    <path id="path1866" style="fill: rgb(255, 255, 255); fill-opacity: 1; fill-rule: nonzero; stroke: none;" d="M 434.727 395.206 L 435.431 395.206 L 435.431 401.668 L 434.727 401.668 Z"/>
    <path id="path1870" style="fill: rgb(255, 255, 255); fill-opacity: 1; fill-rule: nonzero; stroke: none;" d="M 439.118 400.842 L 437.911 397.536 L 440.287 397.536 L 439.126 400.842 Z M 440.439 396.936 L 437.759 396.936 L 437.161 395.206 L 436.41 395.206 L 438.709 401.716 L 439.573 401.716 L 441.807 395.206 L 441.03 395.206 Z"/>
    <path id="path1882" style="fill: rgb(255, 255, 255); fill-opacity: 1; fill-rule: nonzero; stroke: none;" d="M 448.108 401.165 C 447.684 401.165 447.343 401.093 447.085 400.948 C 446.83 400.801 446.629 400.605 446.491 400.359 C 446.352 400.109 446.261 399.825 446.21 399.503 C 446.165 399.179 446.139 398.84 446.139 398.486 C 446.139 398.131 446.165 397.785 446.21 397.45 C 446.261 397.114 446.352 396.815 446.491 396.557 C 446.629 396.297 446.83 396.09 447.085 395.935 C 447.343 395.78 447.684 395.701 448.108 395.701 C 448.525 395.701 448.863 395.78 449.12 395.935 C 449.375 396.09 449.576 396.297 449.714 396.557 C 449.853 396.815 449.948 397.114 449.995 397.45 C 450.04 397.785 450.065 398.131 450.065 398.486 C 450.065 398.84 450.04 399.179 449.995 399.503 C 449.948 399.825 449.853 400.109 449.714 400.359 C 449.576 400.605 449.375 400.801 449.12 400.948 C 448.863 401.093 448.525 401.165 448.108 401.165 M 445.409 398.486 C 445.409 398.928 445.448 399.35 445.524 399.751 C 445.599 400.149 445.737 400.497 445.936 400.795 C 446.136 401.093 446.413 401.329 446.764 401.503 C 447.117 401.677 447.564 401.764 448.108 401.764 C 448.652 401.764 449.097 401.677 449.447 401.503 C 449.798 401.329 450.071 401.093 450.272 400.795 C 450.469 400.497 450.606 400.149 450.682 399.751 C 450.758 399.35 450.799 398.928 450.799 398.486 C 450.799 398.047 450.761 397.641 450.687 397.264 C 450.613 396.888 450.492 396.56 450.317 396.28 C 450.144 396.001 449.913 395.781 449.624 395.615 C 449.337 395.45 448.98 395.358 448.555 395.339 L 448.555 395.32 C 448.701 395.188 448.906 395.086 449.167 395.017 C 449.432 394.947 449.729 394.906 450.057 394.894 C 450.246 394.894 450.452 394.903 450.674 394.922 L 450.674 394.284 C 450.561 394.272 450.446 394.263 450.338 394.256 C 450.227 394.25 450.116 394.246 450.009 394.246 C 449.553 394.253 449.14 394.322 448.774 394.456 C 448.406 394.589 448.128 394.807 447.935 395.112 C 447.43 395.132 447.013 395.234 446.688 395.42 C 446.36 395.608 446.103 395.854 445.911 396.157 C 445.724 396.461 445.592 396.813 445.519 397.213 C 445.445 397.612 445.409 398.036 445.409 398.486"/>
    <path id="path1886" style="fill: rgb(255, 255, 255); fill-opacity: 1; fill-rule: nonzero; stroke: none;" d="M 454.369 395.701 C 454.737 395.701 455.03 395.76 455.25 395.876 C 455.469 395.994 455.632 396.143 455.743 396.323 C 455.855 396.505 455.925 396.697 455.957 396.903 C 455.991 397.109 456.005 397.303 456.005 397.488 L 456.005 401.67 L 456.709 401.67 L 456.709 397.488 C 456.709 396.652 456.509 396.046 456.114 395.671 C 455.718 395.3 455.129 395.112 454.341 395.112 C 453.549 395.112 452.958 395.3 452.563 395.671 C 452.172 396.046 451.975 396.652 451.975 397.488 L 451.975 401.67 L 452.679 401.67 L 452.679 397.488 C 452.679 397.265 452.699 397.048 452.742 396.837 C 452.781 396.624 452.863 396.436 452.987 396.266 C 453.111 396.098 453.284 395.963 453.505 395.859 C 453.727 395.753 454.015 395.701 454.369 395.701"/>
    <path id="path1898" style="fill: rgb(255, 255, 255); fill-opacity: 1; fill-rule: nonzero; stroke: none;" d="M 462.068 401.043 L 458.752 401.043 L 458.752 398.876 L 461.641 398.876 L 461.641 398.249 L 458.752 398.249 L 458.752 395.834 L 462.114 395.834 L 462.114 395.208 L 458.048 395.208 L 458.048 401.67 L 462.068 401.67 Z"/>
    <path id="path1910" style="fill: rgb(255, 255, 255); fill-opacity: 1; fill-rule: nonzero; stroke: none;" d="M 464.075 398.456 L 465.859 398.456 C 466.262 398.456 466.583 398.568 466.825 398.789 C 467.071 399.01 467.193 399.332 467.193 399.749 C 467.193 400.148 467.079 400.464 466.854 400.694 C 466.631 400.926 466.317 401.041 465.919 401.041 L 464.075 401.041 Z M 467.295 395.206 L 465.673 397.83 L 464.075 397.83 L 464.075 395.206 L 463.373 395.206 L 463.373 401.67 L 465.986 401.67 C 466.294 401.67 466.57 401.619 466.811 401.523 C 467.053 401.424 467.254 401.289 467.416 401.117 C 467.576 400.948 467.701 400.745 467.788 400.509 C 467.871 400.275 467.916 400.021 467.916 399.749 C 467.916 399.274 467.788 398.875 467.529 398.547 C 467.274 398.219 466.898 398.021 466.403 397.944 L 468.122 395.206 Z"/>
    <path id="path1914" style="fill: rgb(255, 255, 255); fill-opacity: 1; fill-rule: nonzero; stroke: none;" d="M 474.033 395.112 C 473.673 395.112 473.302 395.138 472.927 395.188 C 472.551 395.239 472.161 395.322 471.762 395.437 L 471.888 396.025 C 472.372 395.904 472.786 395.826 473.128 395.791 C 473.467 395.757 473.768 395.739 474.033 395.739 C 474.305 395.739 474.539 395.773 474.731 395.843 C 474.927 395.914 475.083 396.004 475.209 396.115 C 475.331 396.226 475.423 396.35 475.478 396.489 C 475.535 396.629 475.566 396.771 475.566 396.919 C 475.566 397.134 475.509 397.312 475.397 397.454 C 475.289 397.597 475.149 397.716 474.979 397.811 C 474.811 397.906 474.63 397.983 474.432 398.039 C 474.236 398.097 474.058 398.146 473.891 398.192 C 473.637 398.255 473.389 398.339 473.144 398.443 C 472.902 398.548 472.686 398.677 472.493 398.832 C 472.305 398.989 472.15 399.17 472.034 399.378 C 471.915 399.587 471.856 399.83 471.856 400.102 C 471.856 400.4 471.913 400.654 472.029 400.866 C 472.142 401.079 472.298 401.253 472.493 401.383 C 472.691 401.517 472.92 401.614 473.184 401.675 C 473.446 401.736 473.728 401.765 474.033 401.765 C 474.394 401.765 474.745 401.739 475.083 401.688 C 475.424 401.639 475.788 401.555 476.172 401.441 L 476.012 400.852 C 475.769 400.91 475.557 400.958 475.369 400.994 C 475.182 401.032 475.012 401.062 474.863 401.081 C 474.709 401.1 474.567 401.114 474.432 401.124 C 474.3 401.132 474.167 401.138 474.033 401.138 C 473.763 401.138 473.535 401.108 473.349 401.051 C 473.166 400.994 473.019 400.918 472.909 400.819 C 472.796 400.72 472.717 400.608 472.672 400.481 C 472.623 400.355 472.597 400.222 472.597 400.083 C 472.597 399.874 472.658 399.696 472.78 399.551 C 472.9 399.404 473.047 399.281 473.22 399.179 C 473.396 399.078 473.585 398.995 473.791 398.933 C 473.997 398.869 474.188 398.819 474.359 398.781 C 474.61 398.723 474.856 398.649 475.088 398.557 C 475.322 398.466 475.53 398.347 475.712 398.206 C 475.891 398.064 476.035 397.89 476.144 397.688 C 476.251 397.485 476.305 397.244 476.305 396.965 C 476.305 396.655 476.249 396.383 476.136 396.153 C 476.02 395.921 475.862 395.729 475.657 395.573 C 475.455 395.417 475.217 395.303 474.935 395.226 C 474.656 395.15 474.359 395.112 474.033 395.112"/>
    <path id="path1926" style="fill: rgb(255, 255, 255); fill-opacity: 1; fill-rule: nonzero; stroke: none;" d="M 479.707 400.842 L 478.502 397.536 L 480.878 397.536 L 479.716 400.842 Z M 481.031 396.936 L 478.348 396.936 L 477.748 395.206 L 477 395.206 L 479.3 401.716 L 480.164 401.716 L 482.398 395.206 L 481.62 395.206 Z"/>
    <path id="path1938" style="fill: rgb(255, 255, 255); fill-opacity: 1; fill-rule: nonzero; stroke: none;" d="M 484.062 398.19 L 484.062 395.833 L 486 395.833 C 486.398 395.833 486.707 395.93 486.926 396.124 C 487.142 396.316 487.253 396.614 487.253 397.012 C 487.253 397.391 487.139 397.684 486.913 397.887 C 486.684 398.09 486.337 398.19 485.876 398.19 Z M 487.063 399.929 C 487.063 400.272 486.961 400.542 486.755 400.743 C 486.549 400.943 486.247 401.041 485.848 401.041 L 484.062 401.041 L 484.062 398.817 L 485.848 398.817 C 486.247 398.817 486.549 398.907 486.755 399.089 C 486.961 399.269 487.063 399.549 487.063 399.929 M 486.713 398.514 C 487.129 398.423 487.449 398.24 487.668 397.958 C 487.886 397.676 487.995 397.333 487.995 396.927 C 487.995 396.387 487.838 395.966 487.525 395.661 C 487.21 395.358 486.737 395.206 486.105 395.206 L 483.358 395.206 L 483.358 401.67 L 485.912 401.67 C 486.549 401.67 487.022 401.518 487.335 401.223 C 487.647 400.923 487.807 400.529 487.807 400.034 C 487.807 399.653 487.713 399.332 487.531 399.07 C 487.345 398.807 487.071 398.626 486.713 398.533 Z"/>
    <path id="path1950" style="fill: rgb(255, 255, 255); fill-opacity: 1; fill-rule: nonzero; stroke: none;" d="M 493.174 401.043 L 489.857 401.043 L 489.857 398.876 L 492.746 398.876 L 492.746 398.249 L 489.857 398.249 L 489.857 395.834 L 493.22 395.834 L 493.22 395.208 L 489.154 395.208 L 489.154 401.67 L 493.174 401.67 Z"/>
    <path id="path1962" style="fill: rgb(255, 255, 255); fill-opacity: 1; fill-rule: nonzero; stroke: none;" d="M 495.179 398.456 L 496.965 398.456 C 497.366 398.456 497.687 398.568 497.931 398.789 C 498.174 399.01 498.299 399.332 498.299 399.749 C 498.299 400.148 498.184 400.464 497.959 400.694 C 497.735 400.926 497.422 401.041 497.022 401.041 L 495.179 401.041 Z M 498.401 395.206 L 496.777 397.83 L 495.179 397.83 L 495.179 395.206 L 494.477 395.206 L 494.477 401.67 L 497.091 401.67 C 497.399 401.67 497.675 401.619 497.915 401.523 C 498.159 401.424 498.357 401.289 498.52 401.117 C 498.682 400.948 498.806 400.745 498.891 400.509 C 498.975 400.275 499.021 400.021 499.021 399.749 C 499.021 399.274 498.891 398.875 498.634 398.547 C 498.378 398.219 498.002 398.021 497.509 397.944 L 499.229 395.206 Z"/>
    <path id="path1966" style="fill: rgb(255, 255, 255); fill-opacity: 1; fill-rule: nonzero; stroke: none;" d="M 304.448 407.868 C 310.416 407.868 315.592 407.214 321.415 405.825 C 323.407 405.35 325.567 404.763 327.898 404.066 L 327.898 387.703 L 321.253 387.703 L 316.666 387.703 L 315.798 387.703 L 315.798 393.572 C 300.731 396.039 292.525 392.505 292.525 374.597 C 292.525 356.686 300.731 353.154 315.798 355.619 L 315.798 361.489 L 316.666 361.489 L 321.253 361.489 L 327.898 361.489 L 327.898 345.127 C 325.567 344.429 323.407 343.844 321.415 343.367 C 315.592 341.978 310.416 341.323 304.448 341.323 C 284.458 341.323 274.462 357.961 274.462 374.597 C 274.462 391.232 284.458 407.868 304.448 407.868"/>
    <path id="path1970" style="fill: rgb(255, 255, 255); fill-opacity: 1; fill-rule: nonzero; stroke: none;" d="M 378.721 355.852 L 382.662 355.852 L 382.662 375.655 L 378.721 375.655 L 378.721 387.535 L 398.431 387.535 L 398.431 379.616 C 400.987 386.196 406.79 389.281 414.196 389.517 L 414.196 375.655 L 410.256 375.655 C 403.724 375.655 398.431 370.334 398.431 363.772 L 398.431 355.852 L 402.372 355.852 L 402.372 343.971 L 378.721 343.971 Z"/>
    <path id="path1974" style="fill: rgb(255, 255, 255); fill-opacity: 1; fill-rule: nonzero; stroke: none;" d="M 419.051 355.852 L 422.993 355.852 L 422.993 375.655 L 419.051 375.655 L 419.051 387.535 L 438.76 387.535 L 438.76 379.616 C 441.319 386.196 447.12 389.281 454.527 389.517 L 454.527 375.655 L 450.585 375.655 C 444.056 375.655 438.76 370.334 438.76 363.772 L 438.76 355.852 L 442.701 355.852 L 442.701 343.971 L 419.051 343.971 Z"/>
    <path id="path1978" style="fill: rgb(255, 255, 255); fill-opacity: 1; fill-rule: nonzero; stroke: none;" d="M 551.731 389.72 C 538.364 389.72 527.531 378.885 527.531 365.521 C 527.531 352.157 538.364 341.325 551.731 341.325 C 565.095 341.325 575.929 352.157 575.929 365.521 C 575.929 371.223 573.954 376.464 570.656 380.598 L 567.856 375.748 L 567.552 375.225 L 567.028 375.527 L 560.045 379.561 L 559.522 379.861 L 559.824 380.38 L 563.463 386.688 C 559.989 388.617 555.99 389.72 551.731 389.72 M 551.731 376.521 C 557.805 376.521 562.731 371.595 562.731 365.521 C 562.731 359.447 557.805 354.523 551.731 354.523 C 545.654 354.523 540.729 359.447 540.729 365.521 C 540.729 371.595 545.654 376.521 551.731 376.521"/>
    <path id="path1982" style="fill: rgb(255, 255, 255); fill-opacity: 1; fill-rule: nonzero; stroke: none;" d="M 354.112 389.72 C 340.747 389.72 329.912 378.885 329.912 365.521 C 329.912 352.157 340.747 341.325 354.112 341.325 C 367.475 341.325 378.309 352.157 378.309 365.521 C 378.309 378.885 367.475 389.72 354.112 389.72 M 354.112 376.521 C 360.185 376.521 365.111 371.595 365.111 365.521 C 365.111 359.447 360.185 354.523 354.112 354.523 C 348.037 354.523 343.11 359.447 343.11 365.521 C 343.11 371.595 348.037 376.521 354.112 376.521"/>
    <path id="path1992" style="fill: rgb(255, 255, 255); fill-opacity: 1; fill-rule: nonzero; stroke: none;" d="M 523.499 404.054 L 507.367 404.054 L 507.367 391.954 L 523.499 391.954 Z M 503.333 355.659 L 507.367 355.659 L 507.367 375.824 L 503.333 375.824 L 503.333 387.923 L 523.499 387.923 L 523.499 355.659 L 527.531 355.659 L 527.531 343.559 L 503.333 343.559 Z"/>
    <path id="path1996" style="fill: rgb(255, 255, 255); fill-opacity: 1; fill-rule: nonzero; stroke: none;" d="M 575.332 407.563 L 568.476 407.563 L 568.476 397.293 L 568.476 396.505 L 567.717 396.71 L 557.792 399.368 L 556.021 392.741 L 565.94 390.084 L 566.7 389.882 L 566.306 389.199 L 561.17 380.304 L 567.111 376.871 L 571.383 384.27 L 571.905 385.174 L 572.427 384.27 L 576.698 376.871 L 582.642 380.304 L 577.502 389.199 L 577.11 389.882 L 577.87 390.084 L 587.79 392.741 L 586.016 399.368 L 576.093 396.71 L 575.332 396.505 L 575.332 397.293 Z"/>
    <path id="path2008" style="fill: rgb(255, 255, 255); fill-opacity: 1; fill-rule: nonzero; stroke: none;" d="M 502.021 361.735 L 502.021 363.519 C 502.131 378.535 494.081 389.718 478.851 389.718 C 465.003 389.718 454.722 379.691 454.722 365.63 C 454.722 351.353 463.641 341.325 480.113 341.325 C 489.763 341.325 494.589 344.266 498.889 348.192 L 491.336 356.584 C 488.61 354.294 485.357 352.443 480.424 352.443 C 474.485 352.443 471.087 354.996 469.624 359.471 L 502.024 359.471 L 502.024 361.735 Z M 469.434 369.775 C 470.76 374.413 474.302 376.805 478.957 376.805 C 483.384 376.805 486.489 374.136 487.401 369.775 Z"/>
  </g>
</svg>