<?xml version="1.0" encoding="UTF-8" standalone="no"?>
<svg
   xmlns:dc="http://purl.org/dc/elements/1.1/"
   xmlns:cc="http://creativecommons.org/ns#"
   xmlns:rdf="http://www.w3.org/1999/02/22-rdf-syntax-ns#"
   xmlns:svg="http://www.w3.org/2000/svg"
   xmlns="http://www.w3.org/2000/svg"
   viewBox="0 0 1122.52 793.70135"
   height="793.70135"
   width="1122.52"
   xml:space="preserve"
   id="svg2"
   version="1.1"><metadata
     id="metadata8"><rdf:RDF><cc:Work
         rdf:about=""><dc:format>image/svg+xml</dc:format><dc:type
           rdf:resource="http://purl.org/dc/dcmitype/StillImage" /></cc:Work></rdf:RDF></metadata><defs
     id="defs6"><clipPath
       id="clipPath18"
       clipPathUnits="userSpaceOnUse"><path
         id="path16"
         d="M 0,595.276 H 841.89 V 0 H 0 Z" /></clipPath></defs><g
     transform="matrix(1.3333333,0,0,-1.3333333,0,793.70133)"
     id="g10"><g
       id="g12"><g
         clip-path="url(#clipPath18)"
         id="g14"><g
           transform="translate(144.084,323.8884)"
           id="g20"><path
             id="path22"
             style="fill:#231f20;fill-opacity:1;fill-rule:evenodd;stroke:none"
             d="m 0,0 c 0,-1.458 0.475,-0.358 -0.014,-2.143 -0.194,-0.707 -0.337,-1.502 -0.498,-2.249 -0.262,-1.215 -0.48,-1.083 -0.725,-1.998 -0.246,-0.918 -0.085,-1.528 -0.349,-2.376 -0.485,-1.558 -1.081,-1.977 -1.447,-4.001 -0.174,-0.957 -0.277,-1.175 -0.679,-2.045 -0.025,-0.054 -0.427,-0.9 -0.442,-0.92 -0.545,-0.764 0.118,-0.488 -1.022,-0.613 -0.926,1.648 0.781,3.802 1.072,7.918 0.285,4.033 0.075,1.16 0.566,3.792 0.422,2.26 0.757,2.121 0.823,3.536 0.263,5.648 0.492,1.754 1.36,7.358 0.172,1.116 0.313,0.952 0.464,1.715 0.324,1.63 -0.355,1.487 0.541,3.817 l 1.094,5.171 c 0.284,1.384 -0.147,2.7 0.271,4.089 0.31,1.032 0.278,0.375 0.352,1.827 0.12,2.376 0.544,2.349 0.745,3.613 0.116,0.73 0.016,1.316 0.137,2.043 L 5.176,43.041 C 6.53,42.134 5.994,40.949 5.994,36.775 5.994,35.691 5.636,35.911 5.479,34.838 5.319,33.742 5.593,32.593 5.174,29.677 L 4.072,20.445 C 3.924,19.09 3.672,19.557 3.551,18.242 3.457,17.214 3.466,16.464 3.358,15.711 2.997,13.193 2.452,12.602 1.991,8.906 L 1.156,4.292 C 0.867,3.029 0,1.211 0,0 m 10.625,24.517 c 0,-1.011 0.244,-2.452 -1.09,-2.452 -1.159,0 -1.518,1.658 -1.118,2.461 0.558,1.118 2.208,1.391 2.208,-0.009 M 4.086,-6.81 C 3.579,-4.633 3.965,-1.325 4.44,1.008 4.595,1.766 4.745,1.763 4.954,2.947 l 0.728,4.175 c 0.161,1 0.167,1.218 0.35,2.126 0.422,2.097 -0.66,1.081 0.506,4.373 0.276,0.782 0.494,1.582 0.7,2.569 l 0.815,2.454 c 0.698,1.445 -0.062,1.658 1.482,1.787 0.024,-1.055 0.197,-0.92 0.194,-1.634 C 9.726,18.195 9.563,17.892 9.528,16.9 9.445,14.551 9.837,13.02 9.266,11.166 8.491,8.645 7.977,2.32 6.625,-0.904 6.146,-2.047 6.094,-3.632 5.158,-5.702 4.606,-6.918 5.237,-6.202 4.086,-6.81 m -102.16,-27.786 c 0.682,0 1.364,2.191 1.722,2.909 4.468,8.947 9.12,16.733 14.338,25.162 1.544,2.494 2.324,4.269 4.41,7.031 3.466,4.59 5.418,5.771 7.863,10.39 -2.307,-0.191 -4.072,-3.297 -5.257,-4.278 -1.04,-0.862 -1.594,-1.152 -2.375,-2.256 l -6.201,-7.965 c -2.163,-2.615 -9.674,-15.337 -10.686,-17.372 -2.973,-5.98 -2.818,-6.342 -4.916,-11.429 -0.313,-0.759 -0.445,-0.593 -0.533,-1.647 0.535,-0.283 0.804,-0.545 1.635,-0.545 m 20.097,26.907 1.425,-1.301 c 1.364,0.723 1.362,0.498 1.362,2.18 0,1.354 -2.249,1.222 -2.787,-0.879 M 17.891,84.175 C 14.905,84.006 12.4,83.625 11.693,82.834 10.95,82.003 9.315,78.347 8.669,77.141 L 7.175,74.276 C 5.456,71.107 2.941,63.348 2.149,59.688 L -0.472,47.055 C -1.367,43.884 -1.321,41.369 -1.773,39.638 L -3.771,28.287 C -3.925,27.308 -3.837,27.199 -4.052,26.389 -4.288,25.498 -4.231,25.632 -4.4,24.559 -4.518,23.815 -4.724,23.406 -4.829,22.808 L -5.312,18.932 C -5.577,17.88 -5.57,18.575 -5.73,17.171 -5.835,16.254 -5.872,16.07 -5.964,15.226 -6.109,13.902 -6.049,14.409 -6.335,13.417 -6.696,12.17 -6.664,11.028 -6.926,9.649 L -7.901,4.362 c -0.216,-0.632 -0.4,-0.871 -0.508,-1.674 -0.362,-2.702 -1.07,-4.826 -1.122,-7.595 -0.025,-1.299 0.009,-0.986 -0.273,-1.907 l -2.087,-8.81 c -1.642,-6.679 -4.348,-13.146 -6.944,-19.479 -5.964,-14.549 -13.709,-28.201 -22.613,-41.133 -0.37,-0.537 -0.426,-0.79 -0.857,-1.322 -0.706,-0.871 -1.301,-1.452 -1.987,-2.372 -0.347,-0.464 -0.566,-0.893 -0.886,-1.293 l -7.368,-8.16 -6.926,-6.15 c -2.474,-2.103 -5.067,-3.601 -7.997,-5.079 -1.651,-0.832 -3.088,-1.209 -4.872,-1.666 -0.849,-0.218 -1.046,-0.421 -2.032,-0.421 -4.057,0 -10.613,-0.878 -12.093,4.253 -0.852,2.958 -0.711,5.083 -0.711,8.279 0,0.923 0.504,1.609 0.543,3.542 0.053,2.621 0.801,4.577 1.083,7.09 0.416,3.711 3.107,12.531 4.816,16.433 0.931,2.129 1.628,3.78 2.639,5.805 4.126,8.264 17.851,29.652 23.028,36.087 1.738,2.159 3.708,5.021 5.552,6.979 l 2.04,2.318 c 3.143,3.267 5.943,7.01 9.881,7.01 6.204,0 5.47,-7.234 6.554,-9.246 0.516,-0.955 1.571,-0.885 2.635,-1.18 1.197,-0.33 2.24,-0.269 3.531,-0.554 2.153,-0.476 4.415,-1.229 6.622,-1.279 0.991,1.872 0.758,9.847 0.54,12.526 -0.087,1.062 -0.365,1.253 -0.499,2.225 -0.328,2.378 -0.439,2.638 -1.168,4.553 -2.22,5.835 -4.701,8.771 -9.614,12.452 -2.134,1.598 -4.197,2.974 -6.535,4.361 l -7.333,3.837 c -3.177,1.602 -6.259,2.786 -9.641,3.979 -0.735,0.259 -1.346,0.376 -2.091,0.634 -5.566,1.93 -4.461,2.925 -12.072,-3.512 -2.623,-2.218 -6.35,-6.09 -8.409,-8.753 l -3.995,-4.45 c -2.709,-3.021 -5.071,-6.47 -7.341,-9.821 l -10.017,-15.591 c -4.645,-8.054 -11.486,-23.482 -14.117,-33.01 -0.626,-2.266 -1.434,-4.523 -1.702,-7.017 -0.167,-1.552 -0.17,-2.853 -0.514,-3.571 -0.334,-0.699 -0.496,-0.944 -0.569,-1.166 v -16.388 c 0.027,-2.302 0.227,-1.153 0.68,-2.445 0.652,-1.864 0.334,-4.241 2.869,-9.934 1.301,-2.92 2.475,-6.176 4.239,-8.836 l 4.31,-6.315 c 0.417,-0.605 0.442,-0.745 0.91,-1.27 0.818,-0.917 1.274,-1.208 2.091,-2.268 2.096,-2.725 8.853,-7.406 11.985,-9.264 2.764,-1.637 6.038,-3.126 9.216,-3.86 5.519,-1.275 9.601,-1.393 15.146,-0.842 2.297,0.229 4.829,0.979 6.856,1.589 0.818,0.246 0.798,0.303 1.555,0.625 0.591,0.252 0.956,0.34 1.596,0.584 1.143,0.437 2.127,0.796 3.12,1.238 2.842,1.267 5.986,2.282 8.807,3.725 l 18.587,11.379 c 0.916,0.686 1.474,1.232 2.457,1.902 2.503,1.707 4.877,3.679 6.985,5.819 0.459,0.464 0.611,0.608 1.137,1.043 l 10.199,11.048 c 4.104,5.226 7.76,11.03 10.891,16.897 l 5.68,11.482 c 1.383,2.942 3.799,9.203 4.718,12.444 0.617,2.171 1.357,4.39 1.909,6.536 l 1.17,5.096 c 0.179,0.741 0.278,0.686 0.474,1.705 0.155,0.806 0.157,1.052 0.253,1.925 0.156,1.413 0.153,0.706 0.418,1.762 0.355,1.411 0.231,2.338 0.677,3.682 l 1.298,4.967 c 0.322,1.942 0.095,1.99 0.808,5.73 l 2.414,14.749 c 0.089,0.667 0.098,1.31 0.234,1.944 0.205,0.952 0.285,0.719 0.405,1.774 l 4.62,25.346 c 1.211,4.517 1.638,9.435 3.223,13.938 l 3.428,9.376 c 0.962,1.917 3.67,3.623 5.912,3.623 3.881,0 6.588,-6.604 8.039,-6.935 1.172,-0.267 4.753,0.977 6.176,1.165 1.56,0.208 1.737,0.409 3.182,0.633 3.201,0.496 2.991,0.978 1.286,5.568 -1.457,3.925 -2.982,7.675 -5.526,11.091 l -3.299,3.511 c -2.388,2.111 -7.982,4.308 -10.947,4.308 -4.793,0 -6.751,-0.195 -11.158,-2.736 -10.913,-6.291 -13.157,-14.713 -14.995,-16.06 0.063,2.836 1.205,5.804 2.273,8.351 l 1.227,3.131 c 0.573,1.509 1.173,3.136 2.064,4.474 l 1.855,2.504 c 0.787,0.842 3.293,2.571 3.372,3.151 0.077,0.573 -0.296,0.999 -0.984,0.999 H 30.5 Z M -90.446,-32.689 c -1.358,0 -0.578,1.344 -0.203,2.927 0.94,3.964 2.261,4.951 2.714,6.548 0.52,1.835 0.813,1.551 1.732,2.899 l 3.34,5.649 c 0.824,1.09 1.19,1.16 2.034,2.598 1.384,2.359 4.376,4.019 2.191,-0.283 l -8.106,-14.778 c -0.539,-0.81 -2.63,-5.56 -3.702,-5.56" /></g><g
           transform="translate(436.9443,274.8547)"
           id="g24"><path
             id="path26"
             style="fill:#231f20;fill-opacity:1;fill-rule:evenodd;stroke:none"
             d="m 0,0 c 0.99,0.082 1.181,0.427 1.858,0.866 0.561,0.364 0.922,0.535 1.523,0.928 2.817,1.844 13.472,11.021 16.3,13.667 0.59,0.554 0.776,0.572 1.362,1.09 0.491,0.433 0.739,0.787 1.23,1.221 0.936,0.828 1.918,1.494 2.856,2.32 l 13.046,11.745 c 3.198,2.668 8.531,7.992 11.796,10.542 0.661,0.517 0.733,0.547 1.317,1.134 l 7.585,7.127 c 2.462,2.381 3.79,3.856 6.594,6.209 l 14.82,14.874 c 0.391,0.459 0.657,0.88 1.049,1.403 0.765,1.024 1.685,1.593 2.026,2.876 C 80.886,75.341 74.438,68.75 72.37,66.836 71.79,66.3 71.504,66.195 70.896,65.586 L 64.634,59.589 C 64.136,59.146 63.695,58.923 63.2,58.571 L 56.461,52.779 C 53.156,49.464 51.986,48.861 48.696,45.56 L 41.07,38.476 C 37.577,35.39 34.411,31.792 30.866,28.793 29.713,27.818 29.365,27.371 27.968,26.516 26.965,25.902 25.884,24.113 22.882,21.795 21.869,21.014 21.327,20.238 20.352,19.421 16.422,16.132 13.129,12.518 10,9.887 9.002,9.048 8.038,8.512 7.196,7.515 5.753,5.806 0.431,1.614 0,0 m -32.691,75.73 c 0.834,-1.738 -4.53,-9.919 -5.836,-12.144 L -50.943,43.312 c -1.47,-2.063 -8.7,-14.019 -9.947,-13.417 -1.023,0.492 0.366,2.436 0.683,3.067 0.511,1.015 0.959,2.032 1.547,3.083 1.129,2.017 2.209,3.881 3.468,5.795 l 7.127,11.67 c 1.189,1.989 2.342,3.775 3.605,5.657 l 3.759,5.776 c 0.475,0.712 7.052,10.145 8.01,10.787 M 25.608,31.327 c 0.095,1.137 0.368,0.939 1.631,2.728 0.646,0.913 1.426,1.554 2.251,2.38 L 51.877,57.09 c 0.66,0.515 0.736,0.544 1.317,1.134 l 3.718,3.366 c 0.043,0.036 0.105,0.088 0.148,0.124 l 0.445,0.372 c 0.695,0.593 5.069,4.526 5.733,3.862 0.798,-0.798 -7.536,-8.752 -8.139,-9.355 L 41.206,43.244 C 39.372,41.389 28.41,31.56 25.608,31.327 M -37.323,57.75 c 0,2.454 4.978,2.031 2.218,-0.601 -0.657,-0.627 -2.218,-0.645 -2.218,0.601 M -50.399,35.141 c 1.021,4.384 6.226,12.861 8.91,16.424 1.086,1.44 2.578,3.845 4.439,4.279 -0.26,-3.117 -3.805,-8.426 -5.536,-11.354 -1.09,-1.844 -2.216,-3.281 -3.397,-5.048 -0.924,-1.38 -2.669,-4.156 -4.416,-4.301 m 143.525,98.067 c -0.826,-0.184 -1.743,-1.842 -4.625,-5.41 l -3.299,-4.056 c -0.6,-0.627 -0.691,-0.868 -1.234,-1.491 -1.601,-1.834 -2.829,-3.867 -4.488,-5.591 -0.887,-0.924 -1.321,-1.806 -2.179,-2.724 l -9.197,-10.963 c -0.789,-1.018 -1.51,-1.794 -2.368,-2.808 L 47.168,78.416 c -2.967,-3.677 -6.3,-7.188 -9.509,-10.651 l -7.033,-7.95 c -2.288,-2.946 -4.885,-5.292 -7.264,-7.991 -0.827,-0.939 -1.492,-1.917 -2.319,-2.856 -0.84,-0.953 -1.744,-1.639 -2.584,-2.593 l -2.32,-2.583 C 14.486,41.994 12.893,40.552 11.327,38.525 9.884,36.656 7.853,35.228 6.346,33.426 L -5.953,20.39 c -1.268,-1.589 -3.482,-3.536 -5.013,-5.067 -6.715,-6.716 -13.337,-13.58 -20.299,-20.018 -0.897,-0.831 -1.537,-1.68 -2.476,-2.428 -1.137,-0.907 -1.67,-1.453 -2.697,-2.48 l -16.895,-15.794 c -0.579,-0.517 -0.772,-0.545 -1.36,-1.092 -0.479,-0.446 -0.724,-0.788 -1.235,-1.217 -1.221,-1.022 -6.284,-5.801 -7.276,-5.801 -2.304,0 -3.431,0.545 -5.72,0.545 0.453,1.699 6.257,9.978 7.625,12.534 l 14.638,22.409 c 0.528,0.733 0.762,1.181 1.323,1.948 2.385,3.26 4.455,6.822 6.709,10.181 l 12.32,18.462 c 0.877,1.445 1.726,2.562 2.647,3.891 0.266,0.384 0.339,0.572 0.628,1.007 l 4.944,7.042 c 4.004,6.015 8.723,11.443 13.03,17.208 l 9.853,13.848 c 2.213,3.165 1.361,2.814 -0.616,6.518 -1.963,3.677 -4.456,6.83 -7.377,9.786 -4.552,4.606 -4.455,2.922 -4.795,1.114 L -8.563,90.83 c -0.373,-1.469 -1.176,-2.68 -1.875,-3.846 l -3.517,-4.655 c -0.889,-1.021 -0.295,-0.747 -1.574,-1.423 0.028,1.232 0.264,1.424 0.616,2.381 0.647,1.761 0.783,3.021 1.135,4.858 0.978,5.12 0.228,7.904 -3.186,12.028 -1.408,1.701 -5.334,3.07 -7.827,3.07 -0.429,-1.839 -21.653,-34.874 -22.414,-35.884 -2.831,-3.755 -5.268,-7.872 -7.773,-11.84 l -4.321,-7.121 c -0.54,-1.015 -0.896,-1.738 -1.467,-2.619 l -1.463,-2.351 c -5.263,-9.005 -11.18,-17.548 -16.519,-26.523 -0.919,-1.547 -1.829,-3.175 -2.87,-4.758 -1.112,-1.691 -1.895,-3.196 -2.954,-4.946 -2.013,-3.324 -3.683,-6.655 -5.59,-9.937 -0.484,-0.834 -0.797,-1.631 -1.321,-2.493 -2.393,-3.928 -5.244,-9.843 -7.447,-14.074 -0.255,-0.489 -0.323,-0.744 -0.623,-1.283 -3.265,-5.862 -6.225,-12.075 -9.057,-18.185 -1.341,-2.896 -7.172,-14.849 -7.172,-16.529 0,-2.445 5.746,-11.93 7.963,-14.102 1.858,-1.823 4.018,-3.318 6.381,-4.516 1.294,-0.656 2.431,-1.331 3.696,-1.752 1.23,-0.409 3.414,-0.691 3.754,-1.967 h 1.09 c 0.242,0.907 0.557,0.978 1.3,1.423 11.458,6.865 22.143,14.949 32.517,23.33 1.097,0.886 2.13,1.54 3.343,2.378 10.347,7.152 20.138,15.097 30.134,22.715 1.065,0.811 1.958,1.746 3.153,2.568 L 10.272,0.896 c 1.123,0.955 1.991,1.853 3.192,2.802 l 12.688,10.74 c 1.058,0.815 1.994,1.733 3.114,2.608 2.193,1.714 4.066,3.749 6.264,5.449 l 52.504,47.202 c 2.972,2.392 6.556,6.173 9.782,9.014 l 8.363,7.983 c 6.304,6.326 5.789,3.828 5.789,11.101 l -0.313,4.591 c -0.458,3.094 -2.384,8.672 -3.616,11.639 -1.828,4.403 -5.568,11.269 -9.304,14.396 -3.379,2.83 -4.419,4.593 -5.295,4.787 z M 19.343,25.606 c -0.605,2.853 4.631,5.095 4.631,3.541 0,-2.074 -2.608,-3.372 -4.631,-3.541" /></g><g
           transform="translate(685.126,239.4406)"
           id="g28"><path
             id="path30"
             style="fill:#231f20;fill-opacity:1;fill-rule:evenodd;stroke:none"
             d="m 0,0 c 0.33,0.687 0.248,0.744 0.705,1.476 0.428,0.685 0.572,0.818 0.934,1.517 1.537,2.973 3.474,5.908 5.782,8.384 4.184,4.49 2.663,3.176 7.081,6.811 0.499,0.412 0.864,0.686 1.354,1.099 0.725,0.611 0.49,0.618 1.58,0.872 -0.215,-0.804 -0.246,-0.744 -0.889,-1.291 -0.307,-0.26 -0.364,-0.264 -0.614,-0.475 L 15.364,17.871 C 15.323,17.833 15.267,17.776 15.226,17.738 14.388,16.958 13.481,16.433 12.801,15.532 12.408,15.013 12.315,14.862 11.779,14.374 9.033,11.873 8.203,10.37 6.186,7.98 5.427,7.082 4.769,6.339 4.082,5.453 3.314,4.463 3.013,3.657 2.261,2.645 1.249,1.28 0.978,0.262 0,0 m -71.104,3.27 c 0.291,1.089 2.282,3.727 3.062,4.566 l 7.644,7.612 c 0.73,0.614 1.421,1.086 2.137,1.676 0.933,0.77 0.898,1.274 2.413,1.4 -0.912,-1.361 -4.039,-3.511 -5.801,-5.639 -0.575,-0.694 -1.245,-1.27 -1.895,-1.92 L -68.875,4.854 C -69.744,3.444 -69.127,3.27 -71.104,3.27 M 2.725,9.535 c 0.145,1.745 2.55,3.997 3.615,5.102 0.822,0.853 1.118,1.459 2.031,2.328 0.667,0.636 1.715,1.615 2.526,1.832 C 10.389,16.891 4.871,11.709 3.94,10.498 3.325,9.697 3.783,9.817 2.725,9.535 m -66.746,5.993 c -0.262,-0.986 -0.497,-0.854 -1.151,-1.573 L -71.885,6.23 c -0.467,-0.626 -2.09,-3.418 -2.787,-2.721 -0.341,0.341 0.261,0.965 0.647,1.583 0.424,0.679 0.77,1.179 1.246,1.76 3.453,4.203 3.305,3.762 6.915,7.523 0.699,0.729 0.718,1.06 1.843,1.153 M 1.576,8.504 C 1.881,7.948 1.845,8.104 1.907,7.355 1.063,7.428 1.393,7.353 0.817,7.628 Z m 6.301,-50.727 c 1.477,0.109 0.355,0.396 1.863,0.884 l 2.559,0.711 c 1.946,0.641 4.023,1.744 5.697,2.747 3.467,2.077 4.51,3.152 7.296,5.235 l 2.608,1.752 c 4.243,2.943 9.156,9.254 11.757,13.579 2.848,4.736 6.26,11.91 8.138,17.196 0.34,0.958 0.563,2.206 0.854,3.231 0.252,0.888 0.303,2.79 1.205,3.155 V 9.263 L 39.69,15.989 c -4.891,2.744 -9.187,3.851 -14.54,1.359 -1.139,-0.531 -1.789,-0.91 -2.735,-1.623 -3.069,-2.317 -2.96,-2.101 0.664,-5.724 1.986,-1.986 2.563,0.079 4.709,0.079 3.368,0 2.049,-4.438 1.496,-6.127 -2.552,-7.788 -6.568,-14.1 -11.03,-20.843 -1.137,-1.717 -2.451,-3.61 -3.884,-5.106 -1.376,-1.439 -2.015,-2.537 -4.221,-4.769 -0.87,-0.88 -1.417,-1.236 -2.319,-2.04 -2.433,-2.169 -5.746,-4.973 -9.191,-4.973 -1.827,0 -2.466,1.823 -2.807,3.467 -0.208,1.005 -0.304,1.54 -0.255,2.338 0.33,5.29 -0.541,3.995 1.171,11.068 0.17,0.706 0.536,1.803 0.768,2.501 2.722,8.18 6.836,13.939 11.552,20.32 1.135,1.534 1.996,2.093 3.112,3.427 2.887,3.455 6.356,6.368 9.806,9.262 0.662,0.555 1.011,1.062 1.672,1.597 l 5.437,4.098 c 1.976,1.234 3.021,2.397 5.504,2.397 1.806,0 1.634,-3.473 1.634,-5.448 1.105,-0.585 4.211,-2.35 5.449,-2.452 1.043,0.989 2.724,6.007 2.724,7.355 0,2.765 -0.385,5.641 -2.375,7.704 -3.266,3.39 -8.107,3.692 -12.414,2.18 -1.066,-0.374 -1.953,-0.941 -2.919,-1.167 0.464,1.737 4.359,3.75 6.022,4.33 0.911,0.319 1.997,0.347 2.968,0.573 0,1.496 -0.069,1.365 -1.023,1.974 -0.982,0.627 -0.845,0.665 -1.632,1.364 -0.634,0.564 -3.139,2.111 -4.155,2.111 -2.948,0 -11.583,-6.392 -14.402,-8.482 C 13.44,35.972 12.943,35.331 11.989,34.594 6.793,30.579 2.688,25.3 -1.45,20.247 -5.235,15.624 -11.435,4.716 -13.076,-0.271 c -0.889,-2.697 -1.638,-3.531 -3.5,-5.763 -0.236,-0.284 -0.274,-0.302 -0.538,-0.551 -0.059,-0.055 -0.233,-0.201 -0.289,-0.256 -0.041,-0.039 -0.101,-0.094 -0.141,-0.133 -3.583,-3.522 -8.56,-9.756 -12.351,-13.528 l -6.815,-7.079 c -1.207,-1.207 -3.317,-3.905 -4.972,-4.29 0.235,2.815 2.438,6.353 4.012,8.519 2.411,3.319 4.364,6.84 6.561,10.33 l 13.785,20.266 c 0.582,0.742 1.796,1.576 1.796,2.564 0,2.788 -5.421,7.137 -7.585,8.759 -1.208,0.905 -5.628,3.227 -6.854,3.227 -1.413,0 -5.216,-4.818 -6.333,-5.926 -0.561,-0.557 -0.929,-0.962 -1.507,-1.49 l -1.626,-1.644 c -1.075,-1.124 -2.031,-2.028 -3.133,-3.13 l -4.557,-4.707 c -0.62,-0.563 -0.904,-1.033 -1.569,-1.7 L -76.89,-24.725 c -0.752,-0.695 -2.62,-2.559 -3.476,-2.788 0.089,1.06 0.209,1.593 0.271,2.998 0.088,1.982 1.336,6.993 1.873,8.75 0.574,1.877 1.244,3.392 1.977,5.108 1.145,2.683 2.857,5.365 4.474,7.784 1.633,2.443 3.257,5.097 5.235,7.297 1.649,1.835 3.144,3.982 5.048,5.575 l 3.799,3.285 c 2.381,2.229 9.765,7.714 12.282,8.967 2.904,1.446 14.309,8.193 17.92,4.201 0.984,-1.089 0.854,-2.808 3.466,-1.614 0.835,0.382 1.031,0.387 1.002,1.287 -0.043,1.383 -1.028,3.621 -1.529,4.9 -0.576,1.471 -1.964,3.222 -3.231,4.124 -4.034,2.873 -7.892,1.725 -12.268,1.627 0.875,1.306 3.039,1.706 4.414,2.123 3.43,1.041 5.121,0.04 5.121,1.418 0,0.619 -0.168,0.527 -0.477,0.885 -0.309,0.358 -0.038,0.026 -0.431,0.386 l -5.357,4.723 c -4.48,0 -15.645,-6.646 -19.773,-9.65 l -6.221,-4.675 c -1.016,-0.757 -1.203,-0.809 -2.135,-1.679 -4.092,-3.816 -9.567,-8.417 -12.739,-12.869 -0.271,-0.381 -0.46,-0.733 -0.774,-1.133 -0.337,-0.432 -0.526,-0.612 -0.86,-1.046 -1.047,-1.36 -2.015,-2.864 -3.034,-4.321 -3.673,-5.249 -6.113,-11.323 -8.136,-17.472 l -1.334,-6.021 c -0.154,-1.496 -0.57,-1.772 -0.57,-3.244 0,-5.057 0.014,-7.185 1.42,-11.928 0.658,-2.215 1.408,-3.707 2.481,-5.693 1.45,-2.685 6.357,-7.441 9.176,-7.441 2.988,0 4.972,0.454 7.155,2.652 0.692,0.697 1.328,1.214 1.822,1.991 l 18.155,24.614 c 0.789,1.145 2.408,3.81 3.379,4.522 l -3.714,-11.269 c -0.597,-1.998 -1.036,-3.654 -1.637,-5.717 l -1.094,-4.627 c -0.665,-2.64 0.037,-3.601 1.383,-5.786 3.539,-5.748 6.807,-5.676 9.448,-7.17 0.63,-0.357 0.77,-0.511 0.945,-0.572 h 2.025 c 0.89,0 1.041,0.693 2.013,0.984 5.797,1.738 7.233,5.325 11.399,10.395 0.997,1.213 1.79,2.226 2.779,3.486 2.307,2.937 4.879,5.528 6.911,8.617 0.564,0.856 0.621,1.295 1.689,1.58 -1.297,-5.567 -0.35,-5.027 0.19,-9.071 0.247,-1.85 0.404,-1.842 0.867,-3.22 0.958,-2.842 1.226,-3.361 2.966,-5.479 1.545,-1.881 2.39,-2.693 4.418,-4.027 1.51,-0.993 3.333,-1.722 5.012,-2.344 1.937,-0.716 -0.04,-0.9 2.853,-0.921 z M -26.425,0 v 0.818 c 1.746,0.466 2.366,3.929 5.448,5.993 C -21.238,5.687 -23.382,2.892 -24.35,1.194 -24.941,0.158 -24.89,0 -26.425,0" /></g><g
           transform="translate(521.124,248.7033)"
           id="g32"><path
             id="path34"
             style="fill:#231f20;fill-opacity:1;fill-rule:evenodd;stroke:none"
             d="m 0,0 c 0.123,1.47 6.662,11.104 7.788,12.644 l 4.201,6.151 c 0.877,1.249 3.487,4.957 4.629,5.722 -0.51,-2.191 -4.283,-7.53 -5.663,-9.592 L 4.553,5.8 C 3.841,4.856 1.075,0.287 0,0 m 61.842,1.635 c 0.574,0.856 0.893,1.348 1.452,2.361 0.574,1.042 0.88,1.174 1.456,2.357 1.25,2.564 1.932,2.882 3.975,7.468 1.704,3.826 1.167,1.784 2.701,6.832 l 0.768,1.412 c 0,-3.786 -0.54,-3.457 -1.469,-6.159 C 68.765,10.207 68.434,9.943 65.604,5.772 64.898,4.734 62.964,1.934 61.842,1.635 m -106.52,-4.087 c 1.127,0 1.861,0.169 2.798,0.472 0.859,0.276 1.418,0.402 2.319,0.677 2.797,0.854 5.951,2.198 8.594,3.665 2.064,1.146 5.292,3.644 7.06,5.2 4.498,3.959 5.091,7.291 6.2,12.051 -1.877,-0.156 -8.894,-3.865 -10.574,-4.953 -0.664,-0.43 -1.091,-0.764 -1.8,-1.197 L -37.328,8.45 -46.857,0 c 0.303,-1.137 2.095,-2.452 2.179,-2.452 M 63.749,10.079 c 0.101,1.214 2.248,5.101 2.988,6.818 0.571,1.327 0.126,1.241 1.37,1.899 0,-2.322 -0.845,-3.325 -1.634,-4.903 -0.358,-0.716 -0.706,-1.477 -1.096,-2.173 -0.409,-0.73 -0.686,-1.39 -1.628,-1.641 m -49.854,4.903 c 0.204,2.456 2.133,0.052 0,0 M -17.979,3.541 c 0.876,1.659 5.671,7.802 7.137,10.044 1.394,2.133 1.723,0.929 -0.323,-2.148 l -3.04,-4.315 C -15.01,5.954 -16.067,3.987 -17.979,3.541 M 5.449,2.452 C 5.563,3.831 7.922,7.151 8.77,8.394 l 1.889,2.741 c 0.847,1.132 1.511,2.243 2.418,2.485 C 12.662,11.838 9.076,6.593 7.859,4.944 7.141,3.97 6.742,2.797 5.449,2.452 M -58.299,-7.627 c 0.146,1.757 2.622,4.198 3.696,5.565 l 4.267,4.996 c 1.494,1.509 3.016,3.275 4.721,4.542 1.89,1.404 3.697,3.592 5.297,3.965 l -6.895,-6.999 c -0.79,-0.874 -1.472,-1.503 -2.301,-2.331 -1.61,-1.609 -2.864,-3.167 -4.346,-4.916 l -2.782,-4.028 c -0.531,-0.745 -0.451,-0.768 -1.657,-0.794 M 63.204,8.444 c -0.468,-0.057 -0.385,0.805 -0.018,0.364 0,0 0.008,-0.024 0.008,-0.026 10e-4,-0.004 0.009,-0.071 0.009,-0.078 0.002,-0.024 0.228,-0.231 10e-4,-0.26 M -60.479,-5.448 c 0.495,2.12 2.567,4.586 4.024,6.055 0.737,0.745 0.911,1.178 1.624,1.918 1.639,1.702 5.585,6.39 6.884,6.737 -0.087,-1.051 -2.034,-3.09 -2.804,-4.006 -1.745,-2.074 -4.054,-3.842 -6.496,-7.125 -0.724,-0.974 -2.104,-3.278 -3.232,-3.579 M 19.025,4.04 c -10e-4,0.092 0.153,0.235 0.171,0.192 0.018,-0.043 0.101,0.117 0.126,0.147 0.035,0.043 0.201,0.238 0.248,0.297 l 7.008,9.61 c 0.769,1.02 1.152,1.331 1.916,2.443 0.643,0.935 1.365,1.742 2.019,2.612 0.523,0.697 3.541,4.776 3.541,5.448 0,1.056 -4.743,7.322 -6.093,7.801 -0.431,0.152 -0.527,0.099 -0.99,0.099 l -1.176,-3.182 c -0.648,-1.298 -0.693,-1.783 -1.821,-2.538 0.081,3.617 1.584,4.91 -0.959,8.302 -0.789,1.053 -2.272,1.777 -3.672,1.777 -0.89,0 -7.02,-10.194 -7.51,-11.015 L 8.286,20.318 C 7.606,19.281 7.054,18.587 6.387,17.586 L 1.891,10.368 C 1.592,9.85 1.366,9.34 1.031,8.775 0.452,7.798 -0.129,6.875 -0.762,5.937 -1.437,4.938 -1.88,4.146 -2.562,3.107 c -3.204,-4.876 -7.42,-13.094 -10.867,-17.192 -1.615,-1.921 -3.777,-4.081 -5.798,-5.644 -0.617,-0.477 -0.741,-0.688 -1.271,-1.18 l -7.21,-6.956 c -0.964,-0.815 -1.326,-1.369 -2.416,-2.215 -4.4,-3.418 -8.557,-7.263 -13.645,-9.784 -4.101,-2.032 -5.319,-2.632 -9.899,-2.632 -1.123,0 -2.995,0.742 -3.825,1.35 -0.842,0.618 -1.935,1.719 -2.505,2.671 -2.283,3.812 -2.54,10.514 -1.434,14.912 0.884,3.512 -0.451,0.522 1.801,5.553 l 1.685,3.219 c 1.482,3.446 3.566,6.062 5.849,8.86 0.883,1.081 1.102,2.079 2.787,2.118 0.333,-1.248 1.864,-1.986 2.797,-2.925 3.522,-3.541 2.914,-2.525 10.553,-2.525 5.814,0 15.132,6.267 18.73,9.876 1.249,1.253 2.345,2.2 3.452,3.63 3.556,4.598 4.622,4.332 6.97,10.737 0.895,2.44 0.815,3.885 0.815,6.541 0,4.183 -2.246,5.863 -5.709,7.367 -5.177,2.247 -6.81,0.532 -10.364,0.532 0.597,0.815 1.978,1.344 3.11,1.794 2.862,1.138 4.037,1.203 6.97,1.203 -0.037,1.653 -1.205,2.158 -2.247,3.2 -5.146,5.145 -3.502,4.301 -15.02,-0.1 -0.966,-0.37 -1.008,-0.53 -1.84,-0.884 -6.871,-2.931 -13.057,-7.858 -18.919,-12.41 L -61.235,10.836 -66.087,4.518 c -0.498,-0.682 -0.605,-0.96 -1.045,-1.679 -0.452,-0.738 -0.744,-1.061 -1.159,-1.838 -2.74,-5.138 -5.253,-10.73 -6.061,-16.55 -0.191,-1.382 -0.328,-1.117 -0.522,-2.201 l -1.128,-10.285 c 0.273,-5.168 2.031,-10.691 5.256,-14.649 1.775,-2.179 3.533,-3.786 6.086,-5.084 4.711,-2.394 9.594,-2.356 14.806,-2.356 1.308,0 3.358,0.594 4.443,1.006 1.508,0.572 2.516,0.834 3.915,1.534 3.579,1.792 8.715,4.871 11.597,7.745 l 4.223,3.949 c 0.846,0.845 1.9,2.345 3.065,2.656 -0.178,-2.142 -2.724,-4.948 -2.724,-6.811 0,-2.109 2.709,-5.771 4.165,-7.003 1.911,-1.616 5.148,-3.62 7.821,-3.62 2.793,0 4.394,3.637 6.385,6.964 l 3.477,5.513 c 0.674,1.005 1.187,1.784 1.894,2.736 l 15.833,20.126 c 0.813,0.842 1.145,1.441 2.037,2.322 0.949,0.938 1.379,1.392 2.21,2.421 4.104,5.084 13.583,14.04 19.174,18.965 l 8.54,7.261 c 1.788,1.404 8.605,7.418 10.192,7.787 C 55.471,19.469 50.244,11.142 47.203,8.1 41.695,2.592 41.298,6.071 38.987,5.915 38.076,5.854 36.778,4.489 36.778,3.541 c 0,-0.809 1.687,-2.091 2.247,-2.656 1.065,-1.074 1.55,-1.547 2.927,-2.249 2.319,-1.183 4.185,-2.348 6.847,-3.234 2.685,-0.893 5.464,-1.435 8.125,-1.979 2.753,-0.563 4.411,2.078 5.891,3.969 l 3.303,4.052 c 0.465,0.573 0.716,1.023 1.134,1.591 0.714,0.971 1.296,1.982 1.948,2.954 2.601,3.881 7.08,13.646 7.08,18.528 0,0.946 -1.886,3.759 -2.407,4.403 -1.515,1.873 -3.27,3.494 -5.219,4.861 -1.851,1.299 -4.862,3.267 -7.357,3.267 -0.776,0 -2.188,-1.268 -2.911,-1.721 L 27.903,11.871 c -3.098,-2.396 -5.63,-5.51 -8.56,-8.058 z m -38.912,-2.133 1.68,1.135 c 0.001,-0.092 -0.141,-0.117 -0.159,-0.204 l -0.51,-0.58 c -0.676,-0.487 0.395,-0.232 -1.011,-0.351 m -4.904,-3.269 c 0.654,0.977 2.637,2.177 3.814,2.452 -0.349,-1.311 -2.061,-2.452 -3.814,-2.452 m -37.595,-6.81 c 0.093,1.11 0.14,1.109 1.09,1.361 -0.028,-1.268 0.125,-1.234 -1.09,-1.361" /></g><g
           transform="translate(223.3604,219.5549)"
           id="g36"><path
             id="path38"
             style="fill:#231f20;fill-opacity:1;fill-rule:evenodd;stroke:none"
             d="m 0,0 c 0,-5.21 -0.326,-10.231 3.604,-13.83 1.092,-1 2.185,-1.819 3.591,-2.402 0.916,-0.381 1.239,-0.453 2.209,-0.789 6.716,-2.329 11.102,1.769 16.424,5.361 4.806,3.243 14.306,13.003 18.098,17.316 0.756,0.86 0.643,1.379 1.842,1.699 C 45.479,6.113 45.058,5.559 44.736,4.573 44.015,2.36 43.482,0.418 43.309,-1.898 c -0.269,-3.587 -1.169,-4.507 0.424,-8.581 1.141,-2.917 2.959,-4.855 5.773,-6.214 4.059,-1.961 10.503,-1.706 13.476,1.932 0.42,0.513 0.657,1.068 1.117,1.608 l 8.521,10.548 c 5.532,7.084 11.463,13.836 16.856,21.01 0.879,1.169 1.516,1.91 2.418,3.031 l 3.7,4.472 c 0.535,0.695 0.751,0.746 0.846,1.878 -1.867,0.436 -4.037,0.273 -5.994,0.273 -2.159,0 -5.159,-4.767 -6.743,-6.333 -2.971,-2.94 -5.452,-6.281 -8.445,-9.262 L 68.861,5.513 C 66.977,3.397 64.447,0.444 62.42,-1.396 l -4.011,-3.889 c -1.001,-1 -1.706,-2.498 -3.106,-2.614 0.135,1.627 1.147,3.138 1.993,4.545 5.354,8.897 9.569,16.177 15.388,24.929 l 9.481,13.947 c 0.342,0.494 0.418,0.545 0.693,0.942 0.295,0.426 0.443,0.743 0.738,1.169 0.945,1.363 1.897,2.603 2.821,3.989 l 11.385,15.585 c 0,1.199 -1.695,3.532 -2.488,4.595 -1.85,2.479 -4.371,4.737 -7.135,6.213 -7.441,3.971 -4.616,1.851 -12.365,-8.436 -0.71,-0.943 -1.152,-1.522 -1.821,-2.537 L 51.684,26.774 C 51.285,26.307 50.981,26.124 50.628,25.65 L 47.606,21.862 C 44.263,18.266 41.413,14.3 37.936,10.829 L 28.95,1.562 c -1.978,-1.987 -10.753,-9.734 -13.149,-9.734 -1.83,0 -1.907,2.727 -1.907,4.086 0,2.944 2.618,6.76 3.799,8.732 l 7.012,11.785 c 2.401,3.817 5.304,7.298 7.63,11.167 0.859,1.427 1.644,2.474 2.535,3.73 l 15.566,22.028 c 3.253,4.321 3.679,4.051 0.351,8.87 -4.602,6.664 -4.878,1.855 -5.463,0.601 -0.623,-1.333 -0.892,-1.877 -2.008,-2.624 0.256,3.07 1.648,5.522 -1.064,8.198 -0.409,0.404 -2.627,1.609 -3.294,1.609 -1.274,0 -4.961,-6.624 -5.776,-7.846 L 14.763,32.91 C 11.235,27.27 8.164,21.385 4.743,15.689 3.486,13.597 2.917,10.768 1.896,8.456 1.482,7.519 1.354,6.948 0.984,5.827 0.583,4.613 0,1.455 0,0 m 33.509,55.572 c -0.917,-0.614 -1.061,-0.915 -1.69,-1.851 l -5.308,-8.04 c -0.452,-0.76 -0.766,-1.402 -1.188,-2.082 -0.488,-0.788 -2.611,-3.442 -1.949,-4.104 0.583,-0.583 1.251,0.843 1.653,1.402 1.646,2.287 8.317,12.698 8.482,14.675 m -1.635,-8.445 c 0.29,1.244 0.057,0.977 1.09,1.09 -0.264,-0.988 -0.145,-0.81 -1.09,-1.09 m -5.176,-8.172 c 0.084,1.006 2.6,4.892 3.426,6.109 0.53,0.783 0.822,1.271 1.75,1.519 -0.439,-1.886 -2.303,-4.381 -3.414,-6.121 -0.655,-1.025 -0.373,-1.392 -1.762,-1.507" /></g><g
           transform="translate(161.5195,221.7346)"
           id="g40"><path
             id="path42"
             style="fill:#231f20;fill-opacity:1;fill-rule:evenodd;stroke:none"
             d="m 0,0 c 0,-3.282 1.619,-9.504 3.376,-12.151 1.445,-2.177 3.077,-3.708 5.114,-5.239 1.6,-1.203 3.079,-2.03 5.082,-2.546 3.192,-0.821 0.003,-1.312 6.86,-1.312 6.44,0 4.056,0.591 6.506,1.122 0.904,0.195 1.247,0.24 2.131,0.593 0.644,0.258 1.17,0.378 1.805,0.647 l 5.308,2.865 c 2.072,1.352 4.159,2.726 5.973,4.379 2.877,2.623 5.323,3.101 8.472,7.329 l 3.419,4.208 c 1.871,2.519 3.48,5.296 5.066,8.009 0.661,1.131 1.051,2.366 1.639,3.537 0.321,0.639 0.416,0.98 0.73,1.722 1.339,3.157 3.132,6.023 3.888,9.461 0.331,1.503 0.837,2.671 1.045,4.131 0.175,1.233 0.812,3.166 0.001,3.955 -1.768,1.721 -4.075,3.188 -6.201,4.438 -3.088,1.817 -7.12,4.896 -10.905,4.896 -2.471,0 -5.5,-0.632 -7.233,-1.483 -1.764,-0.869 -4.128,-2.268 -5.026,-3.964 0.329,-0.492 4.051,-4.36 4.359,-4.36 1.66,0 3.608,2.001 5.22,0.316 0.937,-0.979 0.7,-2.507 0.318,-3.673 l -0.546,-1.907 c -0.87,-2.554 -1.879,-5.158 -3.133,-7.491 L 33.622,1.793 30.308,-2.248 c -3.699,-3.654 -9.29,-10.283 -14.507,-10.283 -1.642,0 -2.103,1.275 -2.623,2.553 -1.006,2.471 -0.893,7.582 -0.14,10.017 1.491,4.827 0.352,4.225 3.22,10.945 l 1.863,3.858 c 1.65,3.101 3.589,5.977 5.527,8.911 0.515,0.781 0.672,0.874 1.193,1.531 2.897,3.648 3.299,4.081 6.828,7.61 l 4.223,4.222 c 1.899,1.921 4.194,3.448 6.123,5.32 0.697,0.675 7.184,5.508 9.201,5.508 2.465,0 2.18,-2.948 2.18,-5.448 1.28,-0.677 4.26,-2.452 5.721,-2.452 2.934,5.545 3.939,13.769 -2.578,17.036 -2.182,1.095 -4.542,0.943 -6.957,0.943 -1.808,0 -4.278,-1.764 -5.994,-1.907 1.474,2.2 3.994,3.331 6.344,4.281 1.002,0.405 1.87,0.378 2.919,0.623 -0.039,1.751 -1.453,2.396 -2.678,3.316 C 45.829,67.598 44.884,67.06 37.05,61.837 36.336,61.361 35.675,60.964 34.945,60.4 34.196,59.823 33.643,59.49 32.889,58.915 31.983,58.227 31.774,57.947 30.987,57.275 L 27.181,53.999 C 26.465,53.316 26.034,53.146 25.267,52.371 24.668,51.766 24.025,51.225 23.499,50.598 23.083,50.102 23.23,50.146 22.813,49.649 22.509,49.286 22.209,49.04 21.862,48.693 21.28,48.115 20.584,47.513 20.109,46.905 19.748,46.443 19.874,46.477 19.412,45.968 L 17.774,44.063 C 17.265,43.523 17.339,43.501 16.938,42.993 14.347,39.702 11.951,36.367 9.9,32.597 8.451,29.932 6.764,27.497 5.554,24.684 L 3.025,18.223 C 2.786,17.565 2.862,17.593 2.71,16.903 L 1.611,12.555 C 1.488,11.801 1.474,12.073 1.254,11.276 Z" /></g><g
           transform="translate(266.4043,383.8186)"
           id="g44"><path
             id="path46"
             style="fill:#231f20;fill-opacity:1;fill-rule:evenodd;stroke:none"
             d="m 0,0 c 0,-1.604 1.417,-6.051 1.93,-8.15 l 7.699,-30.438 c 0.523,-1.963 0.874,-4.548 1.54,-5.542 1.371,0.725 0.876,0.662 1.563,4.702 l 0.462,4.442 c 0.105,0.494 0.295,0.922 0.355,1.279 0.213,1.262 0.121,1.669 0.403,2.866 l 1.623,11.454 c 0.304,3.011 1.335,7.515 1.593,10.936 l 0.925,5.614 C 18.845,0.779 18.672,3.564 15.877,6.342 9.293,12.889 0,7.451 0,0" /></g><g
           transform="translate(643.1719,294.468)"
           id="g48"><path
             id="path50"
             style="fill:#231f20;fill-opacity:1;fill-rule:evenodd;stroke:none"
             d="m 0,0 c 0,4.668 11.928,-6.488 14.319,-8.291 1.292,-0.975 2.303,-1.723 3.582,-2.685 2.144,-1.613 10.057,-7.275 11.794,-7.275 2.801,0 6.169,2.502 7.975,4.283 0.393,0.389 0.579,0.529 0.885,1.023 1.307,2.12 0.545,3.154 -0.528,5.75 -0.803,1.948 -2.289,4.058 -3.88,5.383 -1.331,1.108 -1.561,1.532 -3.09,0.722 0.113,-1.35 0.874,-2.032 1.46,-3.172 3.201,-6.233 0.127,-3.904 -4.174,-1.449 L 11.128,7.041 C 8.448,9.006 6.755,10.818 3.209,10.143 1.226,9.765 -1.238,8.209 -2.694,7.053 -4.25,5.816 -6.25,3.639 -5.29,1.54 -4.035,-1.202 -2.322,-6.192 1.016,-7.197 4.824,-8.345 0,-2.34 0,0 M 6.538,5.993 C 6.581,6.126 6.872,6.515 6.987,6.169 7.014,6.088 7.125,6.092 7.163,6.073 L 8.565,5.295 C 9.746,4.518 9.82,4.532 10.08,3.814 9.504,4.119 6.799,5.498 6.538,5.993 m 11.17,-7.628 0.081,-0.081 c -0.005,0.006 -0.107,0.055 -0.081,0.081 m 5.994,-10.351 c 1.312,-0.109 3.513,-1.668 4.086,-2.452 -0.876,0.074 -1.549,0.602 -2.234,1.036 -0.681,0.43 -1.427,0.836 -1.852,1.416" /></g><g
           transform="translate(217.6396,357.9397)"
           id="g52"><path
             id="path54"
             style="fill:#231f20;fill-opacity:1;fill-rule:evenodd;stroke:none"
             d="m 0,0 c 0,-2.119 0.905,-3.959 2.286,-5.614 l 19.442,-16.245 c 0.752,-0.751 1.098,-0.988 1.936,-1.605 0.909,-0.671 1.081,-0.954 1.878,-1.663 0.868,-0.771 6.6,-6.27 3.526,-0.835 l -3.64,6.985 C 24.766,-17.737 14.135,3.59 13.15,4.704 9.807,8.485 3.109,7.748 0.862,2.679 0.634,2.163 0,0.53 0,0" /></g><g
           transform="translate(326.0659,371.5603)"
           id="g56"><path
             id="path58"
             style="fill:#231f20;fill-opacity:1;fill-rule:evenodd;stroke:none"
             d="m 0,0 c -2.523,0 -5.119,-0.672 -6.659,-2.876 -2.145,-3.068 -1.113,-3.016 -2.253,-5.647 -0.275,-0.635 -0.38,-0.769 -0.563,-1.344 -0.208,-0.652 -0.206,-0.802 -0.448,-1.459 l -5.125,-14.76 c -0.608,-1.84 -1.326,-3.828 -2.012,-5.889 -1.589,-4.774 -3.945,-9.915 1.991,-2.535 l 7.479,8.321 c 2.359,2.922 5.093,5.343 7.433,8.367 3.241,4.191 10.166,8.399 5.229,14.994 C 4.47,-2.024 3.806,-1.552 2.993,-1.093 2.483,-0.805 0.715,0 0,0" /></g><g
           transform="translate(196.3901,321.9817)"
           id="g60"><path
             id="path62"
             style="fill:#231f20;fill-opacity:1;fill-rule:evenodd;stroke:none"
             d="m 0,0 c 0,-2.852 1.558,-4.133 3.844,-4.874 l 12.717,-4.445 c 1.655,-0.483 5.088,-2.089 6.596,-2.122 -0.11,1.31 -0.352,1.287 -1.72,2.367 L 8.24,2.792 C 4.885,6.167 0,3.862 0,0" /></g><g
           transform="translate(337.7803,320.8918)"
           id="g64"><path
             id="path66"
             style="fill:#231f20;fill-opacity:1;fill-rule:evenodd;stroke:none"
             d="m 0,0 c 1.557,0.035 4.424,2.011 5.9,2.818 2.015,1.1 3.826,2.141 5.816,3.173 1.249,0.648 7.596,4.103 8.253,4.824 1.744,1.916 1.823,4.639 -0.374,6.6 0,0 -0.565,0.436 -0.617,0.472 -1.869,1.258 -4.315,0.753 -5.843,-0.784 L 1.673,2.686 C 0.995,1.852 0.11,1.324 0,0" /></g></g></g></g></svg>