<?xml version="1.0" encoding="utf-8"?>
<svg viewBox="1.691 -8.355 498.309 173.978" xmlns="http://www.w3.org/2000/svg">
  <defs>
    <clipPath id="clippath0" transform="">
      <path d="M 0 595.276 L 841.89 595.276 L 841.89 0 L 0 0 Z" style="fill: none; clip-rule: nonzero;"/>
    </clipPath>
  </defs>
  <g transform="matrix(1.437961, 0, 0, -1.437961, -243.582077, 1010.812988)" id="g10" style="">
    <g transform="matrix(0.1, 0, 0, 0.1, 103.770508, -32.950832)" id="g12">
      <g transform="matrix(4.247873, 0, 0, 4.247873, 872.665051, 4388.020262)" style="">
        <g transform="">
          <path d="M 0 595.276 L 841.89 595.276 L 841.89 0 L 0 0 Z" style="fill: none;"/>
        </g>
        <g style="clip-path: url(#clippath0);" transform="matrix(1, 0, 0, 1, -10.407166, 283.595123)">
          <g transform="translate(144.084 323.8884)">
            <path d="M 0 0 C 0 -1.458 0.475 -0.358 -0.014 -2.143 C -0.208 -2.85 -0.351 -3.645 -0.512 -4.392 C -0.774 -5.607 -0.992 -5.475 -1.237 -6.39 C -1.483 -7.308 -1.322 -7.918 -1.586 -8.766 C -2.071 -10.324 -2.667 -10.743 -3.033 -12.767 C -3.207 -13.724 -3.31 -13.942 -3.712 -14.812 C -3.737 -14.866 -4.139 -15.712 -4.154 -15.732 C -4.699 -16.496 -4.036 -16.22 -5.176 -16.345 C -6.102 -14.697 -4.395 -12.543 -4.104 -8.427 C -3.819 -4.394 -4.029 -7.267 -3.538 -4.635 C -3.116 -2.375 -2.781 -2.514 -2.715 -1.099 C -2.452 4.549 -2.223 0.655 -1.355 6.259 C -1.183 7.375 -1.042 7.211 -0.891 7.974 C -0.567 9.604 -1.246 9.461 -0.35 11.791 L 0.744 16.962 C 1.028 18.346 0.597 19.662 1.015 21.051 C 1.325 22.083 1.293 21.426 1.367 22.878 C 1.487 25.254 1.911 25.227 2.112 26.491 C 2.228 27.221 2.128 27.807 2.249 28.534 L 5.176 43.041 C 6.53 42.134 5.994 40.949 5.994 36.775 C 5.994 35.691 5.636 35.911 5.479 34.838 C 5.319 33.742 5.593 32.593 5.174 29.677 L 4.072 20.445 C 3.924 19.09 3.672 19.557 3.551 18.242 C 3.457 17.214 3.466 16.464 3.358 15.711 C 2.997 13.193 2.452 12.602 1.991 8.906 L 1.156 4.292 C 0.867 3.029 0 1.211 0 0 M 10.625 24.517 C 10.625 23.506 10.869 22.065 9.535 22.065 C 8.376 22.065 8.017 23.723 8.417 24.526 C 8.975 25.644 10.625 25.917 10.625 24.517 M 4.086 -6.81 C 3.579 -4.633 3.965 -1.325 4.44 1.008 C 4.595 1.766 4.745 1.763 4.954 2.947 L 5.682 7.122 C 5.843 8.122 5.849 8.34 6.032 9.248 C 6.454 11.345 5.372 10.329 6.538 13.621 C 6.814 14.403 7.032 15.203 7.238 16.19 L 8.053 18.644 C 8.751 20.089 7.991 20.302 9.535 20.431 C 9.559 19.376 9.732 19.511 9.729 18.797 C 9.726 18.195 9.563 17.892 9.528 16.9 C 9.445 14.551 9.837 13.02 9.266 11.166 C 8.491 8.645 7.977 2.32 6.625 -0.904 C 6.146 -2.047 6.094 -3.632 5.158 -5.702 C 4.606 -6.918 5.237 -6.202 4.086 -6.81 M -98.074 -34.596 C -97.392 -34.596 -96.71 -32.405 -96.352 -31.687 C -91.884 -22.74 -87.232 -14.954 -82.014 -6.525 C -80.47 -4.031 -79.69 -2.256 -77.604 0.506 C -74.138 5.096 -72.186 6.277 -69.741 10.896 C -72.048 10.705 -73.813 7.599 -74.998 6.618 C -76.038 5.756 -76.592 5.466 -77.373 4.362 L -83.574 -3.603 C -85.737 -6.218 -93.248 -18.94 -94.26 -20.975 C -97.233 -26.955 -97.078 -27.317 -99.176 -32.404 C -99.489 -33.163 -99.621 -32.997 -99.709 -34.051 C -99.174 -34.334 -98.905 -34.596 -98.074 -34.596 M -77.977 -7.689 L -76.552 -8.99 C -75.188 -8.267 -75.19 -8.492 -75.19 -6.81 C -75.19 -5.456 -77.439 -5.588 -77.977 -7.689 M 17.891 84.175 C 14.905 84.006 12.4 83.625 11.693 82.834 C 10.95 82.003 9.315 78.347 8.669 77.141 L 7.175 74.276 C 5.456 71.107 2.941 63.348 2.149 59.688 L -0.472 47.055 C -1.367 43.884 -1.321 41.369 -1.773 39.638 L -3.771 28.287 C -3.925 27.308 -3.837 27.199 -4.052 26.389 C -4.288 25.498 -4.231 25.632 -4.4 24.559 C -4.518 23.815 -4.724 23.406 -4.829 22.808 L -5.312 18.932 C -5.577 17.88 -5.57 18.575 -5.73 17.171 C -5.835 16.254 -5.872 16.07 -5.964 15.226 C -6.109 13.902 -6.049 14.409 -6.335 13.417 C -6.696 12.17 -6.664 11.028 -6.926 9.649 L -7.901 4.362 C -8.117 3.73 -8.301 3.491 -8.409 2.688 C -8.771 -0.014 -9.479 -2.138 -9.531 -4.907 C -9.556 -6.206 -9.522 -5.893 -9.804 -6.814 L -11.891 -15.624 C -13.533 -22.303 -16.239 -28.77 -18.835 -35.103 C -24.799 -49.652 -32.544 -63.304 -41.448 -76.236 C -41.818 -76.773 -41.874 -77.026 -42.305 -77.558 C -43.011 -78.429 -43.606 -79.01 -44.292 -79.93 C -44.639 -80.394 -44.858 -80.823 -45.178 -81.223 L -52.546 -89.383 L -59.472 -95.533 C -61.946 -97.636 -64.539 -99.134 -67.469 -100.612 C -69.12 -101.444 -70.557 -101.821 -72.341 -102.278 C -73.19 -102.496 -73.387 -102.699 -74.373 -102.699 C -78.43 -102.699 -84.986 -103.577 -86.466 -98.446 C -87.318 -95.488 -87.177 -93.363 -87.177 -90.167 C -87.177 -89.244 -86.673 -88.558 -86.634 -86.625 C -86.581 -84.004 -85.833 -82.048 -85.551 -79.535 C -85.135 -75.824 -82.444 -67.004 -80.735 -63.102 C -79.804 -60.973 -79.107 -59.322 -78.096 -57.297 C -73.97 -49.033 -60.245 -27.645 -55.068 -21.21 C -53.33 -19.051 -51.36 -16.189 -49.516 -14.231 L -47.476 -11.913 C -44.333 -8.646 -41.533 -4.903 -37.595 -4.903 C -31.391 -4.903 -32.125 -12.137 -31.041 -14.149 C -30.525 -15.104 -29.47 -15.034 -28.406 -15.329 C -27.209 -15.659 -26.166 -15.598 -24.875 -15.883 C -22.722 -16.359 -20.46 -17.112 -18.253 -17.162 C -17.262 -15.29 -17.495 -7.315 -17.713 -4.636 C -17.8 -3.574 -18.078 -3.383 -18.212 -2.411 C -18.54 -0.033 -18.651 0.227 -19.38 2.142 C -21.6 7.977 -24.081 10.913 -28.994 14.594 C -31.128 16.192 -33.191 17.568 -35.529 18.955 L -42.862 22.792 C -46.039 24.394 -49.121 25.578 -52.503 26.771 C -53.238 27.03 -53.849 27.147 -54.594 27.405 C -60.16 29.335 -59.055 30.33 -66.666 23.893 C -69.289 21.675 -73.016 17.803 -75.075 15.14 L -79.07 10.69 C -81.779 7.669 -84.141 4.22 -86.411 0.869 L -96.428 -14.722 C -101.073 -22.776 -107.914 -38.204 -110.545 -47.732 C -111.171 -49.998 -111.979 -52.255 -112.247 -54.749 C -112.414 -56.301 -112.417 -57.602 -112.761 -58.32 C -113.095 -59.019 -113.257 -59.264 -113.33 -59.486 L -113.33 -75.874 C -113.303 -78.176 -113.103 -77.027 -112.65 -78.319 C -111.998 -80.183 -112.316 -82.56 -109.781 -88.253 C -108.48 -91.173 -107.306 -94.429 -105.542 -97.089 L -101.232 -103.404 C -100.815 -104.009 -100.79 -104.149 -100.322 -104.674 C -99.504 -105.591 -99.048 -105.882 -98.231 -106.942 C -96.135 -109.667 -89.378 -114.348 -86.246 -116.206 C -83.482 -117.843 -80.208 -119.332 -77.03 -120.066 C -71.511 -121.341 -67.429 -121.459 -61.884 -120.908 C -59.587 -120.679 -57.055 -119.929 -55.028 -119.319 C -54.21 -119.073 -54.23 -119.016 -53.473 -118.694 C -52.882 -118.442 -52.517 -118.354 -51.877 -118.11 C -50.734 -117.673 -49.75 -117.314 -48.757 -116.872 C -45.915 -115.605 -42.771 -114.59 -39.95 -113.147 L -21.363 -101.768 C -20.447 -101.082 -19.889 -100.536 -18.906 -99.866 C -16.403 -98.159 -14.029 -96.187 -11.921 -94.047 C -11.462 -93.583 -11.31 -93.439 -10.784 -93.004 L -0.585 -81.956 C 3.519 -76.73 7.175 -70.926 10.306 -65.059 L 15.986 -53.577 C 17.369 -50.635 19.785 -44.374 20.704 -41.133 C 21.321 -38.962 22.061 -36.743 22.613 -34.597 L 23.783 -29.501 C 23.962 -28.76 24.061 -28.815 24.257 -27.796 C 24.412 -26.99 24.414 -26.744 24.51 -25.871 C 24.666 -24.458 24.663 -25.165 24.928 -24.109 C 25.283 -22.698 25.159 -21.771 25.605 -20.427 L 26.903 -15.46 C 27.225 -13.518 26.998 -13.47 27.711 -9.73 L 30.125 5.019 C 30.214 5.686 30.223 6.329 30.359 6.963 C 30.564 7.915 30.644 7.682 30.764 8.737 L 35.384 34.083 C 36.595 38.6 37.022 43.518 38.607 48.021 L 42.035 57.397 C 42.997 59.314 45.705 61.02 47.947 61.02 C 51.828 61.02 54.535 54.416 55.986 54.085 C 57.158 53.818 60.739 55.062 62.162 55.25 C 63.722 55.458 63.899 55.659 65.344 55.883 C 68.545 56.379 68.335 56.861 66.63 61.451 C 65.173 65.376 63.648 69.126 61.104 72.542 L 57.805 76.053 C 55.417 78.164 49.823 80.361 46.858 80.361 C 42.065 80.361 40.107 80.166 35.7 77.625 C 24.787 71.334 22.543 62.912 20.705 61.565 C 20.768 64.401 21.91 67.369 22.978 69.916 L 24.205 73.047 C 24.778 74.556 25.378 76.183 26.269 77.521 L 28.124 80.025 C 28.911 80.867 31.417 82.596 31.496 83.176 C 31.573 83.749 31.2 84.175 30.512 84.175 L 30.5 84.175 Z M -90.446 -32.689 C -91.804 -32.689 -91.024 -31.345 -90.649 -29.762 C -89.709 -25.798 -88.388 -24.811 -87.935 -23.214 C -87.415 -21.379 -87.122 -21.663 -86.203 -20.315 L -82.863 -14.666 C -82.039 -13.576 -81.673 -13.506 -80.829 -12.068 C -79.445 -9.709 -76.453 -8.049 -78.638 -12.351 L -86.744 -27.129 C -87.283 -27.939 -89.374 -32.689 -90.446 -32.689" style="fill-rule: evenodd; fill-opacity: 1; fill: rgb(255, 255, 0);"/>
          </g>
        </g>
        <g style="clip-path: url(#clippath0);" transform="matrix(1, 0, 0, 1, -10.407166, 283.595123)">
          <g transform="translate(436.9443 274.8547)">
            <path d="M 0 0 C 0.99 0.082 1.181 0.427 1.858 0.866 C 2.419 1.23 2.78 1.401 3.381 1.794 C 6.198 3.638 16.853 12.815 19.681 15.461 C 20.271 16.015 20.457 16.033 21.043 16.551 C 21.534 16.984 21.782 17.338 22.273 17.772 C 23.209 18.6 24.191 19.266 25.129 20.092 L 38.175 31.837 C 41.373 34.505 46.706 39.829 49.971 42.379 C 50.632 42.896 50.704 42.926 51.288 43.513 L 58.873 50.64 C 61.335 53.021 62.663 54.496 65.467 56.849 L 80.287 71.723 C 80.678 72.182 80.944 72.603 81.336 73.126 C 82.101 74.15 83.021 74.719 83.362 76.002 C 80.886 75.341 74.438 68.75 72.37 66.836 C 71.79 66.3 71.504 66.195 70.896 65.586 L 64.634 59.589 C 64.136 59.146 63.695 58.923 63.2 58.571 L 56.461 52.779 C 53.156 49.464 51.986 48.861 48.696 45.56 L 41.07 38.476 C 37.577 35.39 34.411 31.792 30.866 28.793 C 29.713 27.818 29.365 27.371 27.968 26.516 C 26.965 25.902 25.884 24.113 22.882 21.795 C 21.869 21.014 21.327 20.238 20.352 19.421 C 16.422 16.132 13.129 12.518 10 9.887 C 9.002 9.048 8.038 8.512 7.196 7.515 C 5.753 5.806 0.431 1.614 0 0 M -32.691 75.73 C -31.857 73.992 -37.221 65.811 -38.527 63.586 L -50.943 43.312 C -52.413 41.249 -59.643 29.293 -60.89 29.895 C -61.913 30.387 -60.524 32.331 -60.207 32.962 C -59.696 33.977 -59.248 34.994 -58.66 36.045 C -57.531 38.062 -56.451 39.926 -55.192 41.84 L -48.065 53.51 C -46.876 55.499 -45.723 57.285 -44.46 59.167 L -40.701 64.943 C -40.226 65.655 -33.649 75.088 -32.691 75.73 M 25.608 31.327 C 25.703 32.464 25.976 32.266 27.239 34.055 C 27.885 34.968 28.665 35.609 29.49 36.435 L 51.877 57.09 C 52.537 57.605 52.613 57.634 53.194 58.224 L 56.912 61.59 C 56.955 61.626 57.017 61.678 57.06 61.714 L 57.505 62.086 C 58.2 62.679 62.574 66.612 63.238 65.948 C 64.036 65.15 55.702 57.196 55.099 56.593 L 41.206 43.244 C 39.372 41.389 28.41 31.56 25.608 31.327 M -37.323 57.75 C -37.323 60.204 -32.345 59.781 -35.105 57.149 C -35.762 56.522 -37.323 56.504 -37.323 57.75 M -50.399 35.141 C -49.378 39.525 -44.173 48.002 -41.489 51.565 C -40.403 53.005 -38.911 55.41 -37.05 55.844 C -37.31 52.727 -40.855 47.418 -42.586 44.49 C -43.676 42.646 -44.802 41.209 -45.983 39.442 C -46.907 38.062 -48.652 35.286 -50.399 35.141 M 93.126 133.208 C 92.3 133.024 91.383 131.366 88.501 127.798 L 85.202 123.742 C 84.602 123.115 84.511 122.874 83.968 122.251 C 82.367 120.417 81.139 118.384 79.48 116.66 C 78.593 115.736 78.159 114.854 77.301 113.936 L 68.104 102.973 C 67.315 101.955 66.594 101.179 65.736 100.165 L 47.168 78.416 C 44.201 74.739 40.868 71.228 37.659 67.765 L 30.626 59.815 C 28.338 56.869 25.741 54.523 23.362 51.824 C 22.535 50.885 21.87 49.907 21.043 48.968 C 20.203 48.015 19.299 47.329 18.459 46.375 L 16.139 43.792 C 14.486 41.994 12.893 40.552 11.327 38.525 C 9.884 36.656 7.853 35.228 6.346 33.426 L -5.953 20.39 C -7.221 18.801 -9.435 16.854 -10.966 15.323 C -17.681 8.607 -24.303 1.743 -31.265 -4.695 C -32.162 -5.526 -32.802 -6.375 -33.741 -7.123 C -34.878 -8.03 -35.411 -8.576 -36.438 -9.603 L -53.333 -25.397 C -53.912 -25.914 -54.105 -25.942 -54.693 -26.489 C -55.172 -26.935 -55.417 -27.277 -55.928 -27.706 C -57.149 -28.728 -62.212 -33.507 -63.204 -33.507 C -65.508 -33.507 -66.635 -32.962 -68.924 -32.962 C -68.471 -31.263 -62.667 -22.984 -61.299 -20.428 L -46.661 1.981 C -46.133 2.714 -45.899 3.162 -45.338 3.929 C -42.953 7.189 -40.883 10.751 -38.629 14.11 L -26.309 32.572 C -25.432 34.017 -24.583 35.134 -23.662 36.463 C -23.396 36.847 -23.323 37.035 -23.034 37.47 L -18.09 44.512 C -14.086 50.527 -9.367 55.955 -5.06 61.72 L 4.793 75.568 C 7.006 78.733 6.154 78.382 4.177 82.086 C 2.214 85.763 -0.279 88.916 -3.2 91.872 C -7.752 96.478 -7.655 94.794 -7.995 92.986 L -8.563 90.83 C -8.936 89.361 -9.739 88.15 -10.438 86.984 L -13.955 82.329 C -14.844 81.308 -14.25 81.582 -15.529 80.906 C -15.501 82.138 -15.265 82.33 -14.913 83.287 C -14.266 85.048 -14.13 86.308 -13.778 88.145 C -12.8 93.265 -13.55 96.049 -16.964 100.173 C -18.372 101.874 -22.298 103.243 -24.791 103.243 C -25.22 101.404 -46.444 68.369 -47.205 67.359 C -50.036 63.604 -52.473 59.487 -54.978 55.519 L -59.299 48.398 C -59.839 47.383 -60.195 46.66 -60.766 45.779 L -62.229 43.428 C -67.492 34.423 -73.409 25.88 -78.748 16.905 C -79.667 15.358 -80.577 13.73 -81.618 12.147 C -82.73 10.456 -83.513 8.951 -84.572 7.201 C -86.585 3.877 -88.255 0.546 -90.162 -2.736 C -90.646 -3.57 -90.959 -4.367 -91.483 -5.229 C -93.876 -9.157 -96.727 -15.072 -98.93 -19.303 C -99.185 -19.792 -99.253 -20.047 -99.553 -20.586 C -102.818 -26.448 -105.778 -32.661 -108.61 -38.771 C -109.951 -41.667 -115.782 -53.62 -115.782 -55.3 C -115.782 -57.745 -110.036 -67.23 -107.819 -69.402 C -105.961 -71.225 -103.801 -72.72 -101.438 -73.918 C -100.144 -74.574 -99.007 -75.249 -97.742 -75.67 C -96.512 -76.079 -94.328 -76.361 -93.988 -77.637 L -92.898 -77.637 C -92.656 -76.73 -92.341 -76.659 -91.598 -76.214 C -80.14 -69.349 -69.455 -61.265 -59.081 -52.884 C -57.984 -51.998 -56.951 -51.344 -55.738 -50.506 C -45.391 -43.354 -35.6 -35.409 -25.604 -27.791 C -24.539 -26.98 -23.646 -26.045 -22.451 -25.223 L 10.272 0.896 C 11.395 1.851 12.263 2.749 13.464 3.698 L 26.152 14.438 C 27.21 15.253 28.146 16.171 29.266 17.046 C 31.459 18.76 33.332 20.795 35.53 22.495 L 88.034 69.697 C 91.006 72.089 94.59 75.87 97.816 78.711 L 106.179 86.694 C 112.483 93.02 111.968 90.522 111.968 97.795 L 111.655 102.386 C 111.197 105.48 109.271 111.058 108.039 114.025 C 106.211 118.428 102.471 125.294 98.735 128.421 C 95.356 131.251 94.316 133.014 93.44 133.208 Z M 19.343 25.606 C 18.738 28.459 23.974 30.701 23.974 29.147 C 23.974 27.073 21.366 25.775 19.343 25.606" style="fill-rule: evenodd; fill-opacity: 1; fill: rgb(255, 255, 255);"/>
          </g>
        </g>
        <g style="clip-path: url(#clippath0);" transform="matrix(1, 0, 0, 1, -10.407166, 283.595123)">
          <g transform="translate(685.126 239.4406)">
            <path d="M 0 0 C 0.33 0.687 0.248 0.744 0.705 1.476 C 1.133 2.161 1.277 2.294 1.639 2.993 C 3.176 5.966 5.113 8.901 7.421 11.377 C 11.605 15.867 10.084 14.553 14.502 18.188 C 15.001 18.6 15.366 18.874 15.856 19.287 C 16.581 19.898 16.346 19.905 17.436 20.159 C 17.221 19.355 17.19 19.415 16.547 18.868 C 16.24 18.608 16.183 18.604 15.933 18.393 L 15.364 17.871 C 15.323 17.833 15.267 17.776 15.226 17.738 C 14.388 16.958 13.481 16.433 12.801 15.532 C 12.408 15.013 12.315 14.862 11.779 14.374 C 9.033 11.873 8.203 10.37 6.186 7.98 C 5.427 7.082 4.769 6.339 4.082 5.453 C 3.314 4.463 3.013 3.657 2.261 2.645 C 1.249 1.28 0.978 0.262 0 0 M -71.104 3.27 C -70.813 4.359 -68.822 6.997 -68.042 7.836 L -60.398 15.448 C -59.668 16.062 -58.977 16.534 -58.261 17.124 C -57.328 17.894 -57.363 18.398 -55.848 18.524 C -56.76 17.163 -59.887 15.013 -61.649 12.885 C -62.224 12.191 -62.894 11.615 -63.544 10.965 L -68.875 4.854 C -69.744 3.444 -69.127 3.27 -71.104 3.27 M 2.725 9.535 C 2.87 11.28 5.275 13.532 6.34 14.637 C 7.162 15.49 7.458 16.096 8.371 16.965 C 9.038 17.601 10.086 18.58 10.897 18.797 C 10.389 16.891 4.871 11.709 3.94 10.498 C 3.325 9.697 3.783 9.817 2.725 9.535 M -64.021 15.528 C -64.283 14.542 -64.518 14.674 -65.172 13.955 L -71.885 6.23 C -72.352 5.604 -73.975 2.812 -74.672 3.509 C -75.013 3.85 -74.411 4.474 -74.025 5.092 C -73.601 5.771 -73.255 6.271 -72.779 6.852 C -69.326 11.055 -69.474 10.614 -65.864 14.375 C -65.165 15.104 -65.146 15.435 -64.021 15.528 M 1.576 8.504 C 1.881 7.948 1.845 8.104 1.907 7.355 C 1.063 7.428 1.393 7.353 0.817 7.628 Z M 7.877 -42.223 C 9.354 -42.114 8.232 -41.827 9.74 -41.339 L 12.299 -40.628 C 14.245 -39.987 16.322 -38.884 17.996 -37.881 C 21.463 -35.804 22.506 -34.729 25.292 -32.646 L 27.9 -30.894 C 32.143 -27.951 37.056 -21.64 39.657 -17.315 C 42.505 -12.579 45.917 -5.405 47.795 -0.119 C 48.135 0.839 48.358 2.087 48.649 3.112 C 48.901 4 48.952 5.902 49.854 6.267 L 49.854 9.263 L 39.69 15.989 C 34.799 18.733 30.503 19.84 25.15 17.348 C 24.011 16.817 23.361 16.438 22.415 15.725 C 19.346 13.408 19.455 13.624 23.079 10.001 C 25.065 8.015 25.642 10.08 27.788 10.08 C 31.156 10.08 29.837 5.642 29.284 3.953 C 26.732 -3.835 22.716 -10.147 18.254 -16.89 C 17.117 -18.607 15.803 -20.5 14.37 -21.996 C 12.994 -23.435 12.355 -24.533 10.149 -26.765 C 9.279 -27.645 8.732 -28.001 7.83 -28.805 C 5.397 -30.974 2.084 -33.778 -1.361 -33.778 C -3.188 -33.778 -3.827 -31.955 -4.168 -30.311 C -4.376 -29.306 -4.472 -28.771 -4.423 -27.973 C -4.093 -22.683 -4.964 -23.978 -3.252 -16.905 C -3.082 -16.199 -2.716 -15.102 -2.484 -14.404 C 0.238 -6.224 4.352 -0.465 9.068 5.916 C 10.203 7.45 11.064 8.009 12.18 9.343 C 15.067 12.798 18.536 15.711 21.986 18.605 C 22.648 19.16 22.997 19.667 23.658 20.202 L 29.095 24.3 C 31.071 25.534 32.116 26.697 34.599 26.697 C 36.405 26.697 36.233 23.224 36.233 21.249 C 37.338 20.664 40.444 18.899 41.682 18.797 C 42.725 19.786 44.406 24.804 44.406 26.152 C 44.406 28.917 44.021 31.793 42.031 33.856 C 38.765 37.246 33.924 37.548 29.617 36.036 C 28.551 35.662 27.664 35.095 26.698 34.869 C 27.162 36.606 31.057 38.619 32.72 39.199 C 33.631 39.518 34.717 39.546 35.688 39.772 C 35.688 41.268 35.619 41.137 34.665 41.746 C 33.683 42.373 33.82 42.411 33.033 43.11 C 32.399 43.674 29.894 45.221 28.878 45.221 C 25.93 45.221 17.295 38.829 14.476 36.739 C 13.44 35.972 12.943 35.331 11.989 34.594 C 6.793 30.579 2.688 25.3 -1.45 20.247 C -5.235 15.624 -11.435 4.716 -13.076 -0.271 C -13.965 -2.968 -14.714 -3.802 -16.576 -6.034 C -16.812 -6.318 -16.85 -6.336 -17.114 -6.585 C -17.173 -6.64 -17.347 -6.786 -17.403 -6.841 C -17.444 -6.88 -17.504 -6.935 -17.544 -6.974 C -21.127 -10.496 -26.104 -16.73 -29.895 -20.502 L -36.71 -27.581 C -37.917 -28.788 -40.027 -31.486 -41.682 -31.871 C -41.447 -29.056 -39.244 -25.518 -37.67 -23.352 C -35.259 -20.033 -33.306 -16.512 -31.109 -13.022 L -17.324 7.244 C -16.742 7.986 -15.528 8.82 -15.528 9.808 C -15.528 12.596 -20.949 16.945 -23.113 18.567 C -24.321 19.472 -28.741 21.794 -29.967 21.794 C -31.38 21.794 -35.183 16.976 -36.3 15.868 C -36.861 15.311 -37.229 14.906 -37.807 14.378 L -39.433 12.734 C -40.508 11.61 -41.464 10.706 -42.566 9.604 L -47.123 4.897 C -47.743 4.334 -48.027 3.864 -48.692 3.197 L -76.89 -24.725 C -77.642 -25.42 -79.51 -27.284 -80.366 -27.513 C -80.277 -26.453 -80.157 -25.92 -80.095 -24.515 C -80.007 -22.533 -78.759 -17.522 -78.222 -15.765 C -77.648 -13.888 -76.978 -12.373 -76.245 -10.657 C -75.1 -7.974 -73.388 -5.292 -71.771 -2.873 C -70.138 -0.43 -68.514 2.224 -66.536 4.424 C -64.887 6.259 -63.392 8.406 -61.488 9.999 L -57.689 13.284 C -55.308 15.513 -47.924 20.998 -45.407 22.251 C -42.503 23.697 -31.098 30.444 -27.487 26.452 C -26.503 25.363 -26.633 23.644 -24.021 24.838 C -23.186 25.22 -22.99 25.225 -23.019 26.125 C -23.062 27.508 -24.047 29.746 -24.548 31.025 C -25.124 32.496 -26.512 34.247 -27.779 35.149 C -31.813 38.022 -35.671 36.874 -40.047 36.776 C -39.172 38.082 -37.008 38.482 -35.633 38.899 C -32.203 39.94 -30.512 38.939 -30.512 40.317 C -30.512 40.936 -30.68 40.844 -30.989 41.202 C -31.298 41.56 -31.027 41.228 -31.42 41.588 L -36.777 46.311 C -41.257 46.311 -52.422 39.665 -56.55 36.661 L -62.771 31.986 C -63.787 31.229 -63.974 31.177 -64.906 30.307 C -68.998 26.491 -74.473 21.89 -77.645 17.438 C -77.916 17.057 -78.105 16.705 -78.419 16.305 C -78.756 15.873 -78.945 15.693 -79.279 15.259 C -80.326 13.899 -81.294 12.395 -82.313 10.938 C -85.986 5.689 -88.426 -0.385 -90.449 -6.534 L -91.783 -12.555 C -91.937 -14.051 -92.353 -14.327 -92.353 -15.799 C -92.353 -20.856 -92.339 -22.984 -90.933 -27.727 C -90.275 -29.942 -89.525 -31.434 -88.452 -33.42 C -87.002 -36.105 -82.095 -40.861 -79.276 -40.861 C -76.288 -40.861 -74.304 -40.407 -72.121 -38.209 C -71.429 -37.512 -70.793 -36.995 -70.299 -36.218 L -52.144 -11.604 C -51.355 -10.459 -49.736 -7.794 -48.765 -7.082 L -52.479 -18.351 C -53.076 -20.349 -53.515 -22.005 -54.116 -24.068 L -55.21 -28.695 C -55.875 -31.335 -55.173 -32.296 -53.827 -34.481 C -50.288 -40.229 -47.02 -40.157 -44.379 -41.651 C -43.749 -42.008 -43.609 -42.162 -43.434 -42.223 L -41.409 -42.223 C -40.519 -42.223 -40.368 -41.53 -39.396 -41.239 C -33.599 -39.501 -32.163 -35.914 -27.997 -30.844 C -27 -29.631 -26.207 -28.618 -25.218 -27.358 C -22.911 -24.421 -20.339 -21.83 -18.307 -18.741 C -17.743 -17.885 -17.686 -17.446 -16.618 -17.161 C -17.915 -22.728 -16.968 -22.188 -16.428 -26.232 C -16.181 -28.082 -16.024 -28.074 -15.561 -29.452 C -14.603 -32.294 -14.335 -32.813 -12.595 -34.931 C -11.05 -36.812 -10.205 -37.624 -8.177 -38.958 C -6.667 -39.951 -4.844 -40.68 -3.165 -41.302 C -1.228 -42.018 -3.205 -42.202 -0.312 -42.223 Z M -26.425 0 L -26.425 0.818 C -24.679 1.284 -24.059 4.747 -20.977 6.811 C -21.238 5.687 -23.382 2.892 -24.35 1.194 C -24.941 0.158 -24.89 0 -26.425 0" style="fill-rule: evenodd; fill-opacity: 1; fill: rgb(255, 255, 255);"/>
          </g>
        </g>
        <g style="clip-path: url(#clippath0);" transform="matrix(1, 0, 0, 1, -10.407166, 283.595123)">
          <g transform="translate(521.124 248.7033)">
            <path d="M 0 0 C 0.123 1.47 6.662 11.104 7.788 12.644 L 11.989 18.795 C 12.866 20.044 15.476 23.752 16.618 24.517 C 16.108 22.326 12.335 16.987 10.955 14.925 L 4.553 5.8 C 3.841 4.856 1.075 0.287 0 0 M 61.842 1.635 C 62.416 2.491 62.735 2.983 63.294 3.996 C 63.868 5.038 64.174 5.17 64.75 6.353 C 66 8.917 66.682 9.235 68.725 13.821 C 70.429 17.647 69.892 15.605 71.426 20.653 L 72.194 22.065 C 72.194 18.279 71.654 18.608 70.725 15.906 C 68.765 10.207 68.434 9.943 65.604 5.772 C 64.898 4.734 62.964 1.934 61.842 1.635 M -44.678 -2.452 C -43.551 -2.452 -42.817 -2.283 -41.88 -1.98 C -41.021 -1.704 -40.462 -1.578 -39.561 -1.303 C -36.764 -0.449 -33.61 0.895 -30.967 2.362 C -28.903 3.508 -25.675 6.006 -23.907 7.562 C -19.409 11.521 -18.816 14.853 -17.707 19.613 C -19.584 19.457 -26.601 15.748 -28.281 14.66 C -28.945 14.23 -29.372 13.896 -30.081 13.463 L -37.328 8.45 L -46.857 0 C -46.554 -1.137 -44.762 -2.452 -44.678 -2.452 M 63.749 10.079 C 63.85 11.293 65.997 15.18 66.737 16.897 C 67.308 18.224 66.863 18.138 68.107 18.796 C 68.107 16.474 67.262 15.471 66.473 13.893 C 66.115 13.177 65.767 12.416 65.377 11.72 C 64.968 10.99 64.691 10.33 63.749 10.079 M 13.895 14.982 C 14.099 17.438 16.028 15.034 13.895 14.982 M -17.979 3.541 C -17.103 5.2 -12.308 11.343 -10.842 13.585 C -9.448 15.718 -9.119 14.514 -11.165 11.437 L -14.205 7.122 C -15.01 5.954 -16.067 3.987 -17.979 3.541 M 5.449 2.452 C 5.563 3.831 7.922 7.151 8.77 8.394 L 10.659 11.135 C 11.506 12.267 12.17 13.378 13.077 13.62 C 12.662 11.838 9.076 6.593 7.859 4.944 C 7.141 3.97 6.742 2.797 5.449 2.452 M -58.299 -7.627 C -58.153 -5.87 -55.677 -3.429 -54.603 -2.062 L -50.336 2.934 C -48.842 4.443 -47.32 6.209 -45.615 7.476 C -43.725 8.88 -41.918 11.068 -40.318 11.441 L -47.213 4.442 C -48.003 3.568 -48.685 2.939 -49.514 2.111 C -51.124 0.502 -52.378 -1.056 -53.86 -2.805 L -56.642 -6.833 C -57.173 -7.578 -57.093 -7.601 -58.299 -7.627 M 63.204 8.444 C 62.736 8.387 62.819 9.249 63.186 8.808 C 63.186 8.808 63.194 8.784 63.194 8.782 C 63.195 8.778 63.203 8.711 63.203 8.704 C 63.205 8.68 63.431 8.473 63.204 8.444 M -60.479 -5.448 C -59.984 -3.328 -57.912 -0.862 -56.455 0.607 C -55.718 1.352 -55.544 1.785 -54.831 2.525 C -53.192 4.227 -49.246 8.915 -47.947 9.262 C -48.034 8.211 -49.981 6.172 -50.751 5.256 C -52.496 3.182 -54.805 1.414 -57.247 -1.869 C -57.971 -2.843 -59.351 -5.147 -60.479 -5.448 M 19.025 4.04 C 19.024 4.132 19.178 4.275 19.196 4.232 C 19.214 4.189 19.297 4.349 19.322 4.379 C 19.357 4.422 19.523 4.617 19.57 4.676 L 26.578 14.286 C 27.347 15.306 27.73 15.617 28.494 16.729 C 29.137 17.664 29.859 18.471 30.513 19.341 C 31.036 20.038 34.054 24.117 34.054 24.789 C 34.054 25.845 29.311 32.111 27.961 32.59 C 27.53 32.742 27.434 32.689 26.971 32.689 L 25.795 29.507 C 25.147 28.209 25.102 27.724 23.974 26.969 C 24.055 30.586 25.558 31.879 23.015 35.271 C 22.226 36.324 20.743 37.048 19.343 37.048 C 18.453 37.048 12.323 26.854 11.833 26.033 L 8.286 20.318 C 7.606 19.281 7.054 18.587 6.387 17.586 L 1.891 10.368 C 1.592 9.85 1.366 9.34 1.031 8.775 C 0.452 7.798 -0.129 6.875 -0.762 5.937 C -1.437 4.938 -1.88 4.146 -2.562 3.107 C -5.766 -1.769 -9.982 -9.987 -13.429 -14.085 C -15.044 -16.006 -17.206 -18.166 -19.227 -19.729 C -19.844 -20.206 -19.968 -20.417 -20.498 -20.909 L -27.708 -27.865 C -28.672 -28.68 -29.034 -29.234 -30.124 -30.08 C -34.524 -33.498 -38.681 -37.343 -43.769 -39.864 C -47.87 -41.896 -49.088 -42.496 -53.668 -42.496 C -54.791 -42.496 -56.663 -41.754 -57.493 -41.146 C -58.335 -40.528 -59.428 -39.427 -59.998 -38.475 C -62.281 -34.663 -62.538 -27.961 -61.432 -23.563 C -60.548 -20.051 -61.883 -23.041 -59.631 -18.01 L -57.946 -14.791 C -56.464 -11.345 -54.38 -8.729 -52.097 -5.931 C -51.214 -4.85 -50.995 -3.852 -49.31 -3.813 C -48.977 -5.061 -47.446 -5.799 -46.513 -6.738 C -42.991 -10.279 -43.599 -9.263 -35.96 -9.263 C -30.146 -9.263 -20.828 -2.996 -17.23 0.613 C -15.981 1.866 -14.885 2.813 -13.778 4.243 C -10.222 8.841 -9.156 8.575 -6.808 14.98 C -5.913 17.42 -5.993 18.865 -5.993 21.521 C -5.993 25.704 -8.239 27.384 -11.702 28.888 C -16.879 31.135 -18.512 29.42 -22.066 29.42 C -21.469 30.235 -20.088 30.764 -18.956 31.214 C -16.094 32.352 -14.919 32.417 -11.986 32.417 C -12.023 34.07 -13.191 34.575 -14.233 35.617 C -19.379 40.762 -17.735 39.918 -29.253 35.517 C -30.219 35.147 -30.261 34.987 -31.093 34.633 C -37.964 31.702 -44.15 26.775 -50.012 22.223 L -61.235 10.836 L -66.087 4.518 C -66.585 3.836 -66.692 3.558 -67.132 2.839 C -67.584 2.101 -67.876 1.778 -68.291 1.001 C -71.031 -4.137 -73.544 -9.729 -74.352 -15.549 C -74.543 -16.931 -74.68 -16.666 -74.874 -17.75 L -76.002 -28.035 C -75.729 -33.203 -73.971 -38.726 -70.746 -42.684 C -68.971 -44.863 -67.213 -46.47 -64.66 -47.768 C -59.949 -50.162 -55.066 -50.124 -49.854 -50.124 C -48.546 -50.124 -46.496 -49.53 -45.411 -49.118 C -43.903 -48.546 -42.895 -48.284 -41.496 -47.584 C -37.917 -45.792 -32.781 -42.713 -29.899 -39.839 L -25.676 -35.89 C -24.83 -35.045 -23.776 -33.545 -22.611 -33.234 C -22.789 -35.376 -25.335 -38.182 -25.335 -40.045 C -25.335 -42.154 -22.626 -45.816 -21.17 -47.048 C -19.259 -48.664 -16.022 -50.668 -13.349 -50.668 C -10.556 -50.668 -8.955 -47.031 -6.964 -43.704 L -3.487 -38.191 C -2.813 -37.186 -2.3 -36.407 -1.593 -35.455 L 14.24 -15.329 C 15.053 -14.487 15.385 -13.888 16.277 -13.007 C 17.226 -12.069 17.656 -11.615 18.487 -10.586 C 22.591 -5.502 32.07 3.454 37.661 8.379 L 46.201 15.64 C 47.989 17.044 54.806 23.058 56.393 23.427 C 55.471 19.469 50.244 11.142 47.203 8.1 C 41.695 2.592 41.298 6.071 38.987 5.915 C 38.076 5.854 36.778 4.489 36.778 3.541 C 36.778 2.732 38.465 1.45 39.025 0.885 C 40.09 -0.189 40.575 -0.662 41.952 -1.364 C 44.271 -2.547 46.137 -3.712 48.799 -4.598 C 51.484 -5.491 54.263 -6.033 56.924 -6.577 C 59.677 -7.14 61.335 -4.499 62.815 -2.608 L 66.118 1.444 C 66.583 2.017 66.834 2.467 67.252 3.035 C 67.966 4.006 68.548 5.017 69.2 5.989 C 71.801 9.87 76.28 19.635 76.28 24.517 C 76.28 25.463 74.394 28.276 73.873 28.92 C 72.358 30.793 70.603 32.414 68.654 33.781 C 66.803 35.08 63.792 37.048 61.297 37.048 C 60.521 37.048 59.109 35.78 58.386 35.327 L 27.903 11.871 C 24.805 9.475 22.273 6.361 19.343 3.813 Z M -19.887 1.907 L -18.207 3.042 C -18.206 2.95 -18.348 2.925 -18.366 2.838 L -18.876 2.258 C -19.552 1.771 -18.481 2.026 -19.887 1.907 M -24.791 -1.362 C -24.137 -0.385 -22.154 0.815 -20.977 1.09 C -21.326 -0.221 -23.038 -1.362 -24.791 -1.362 M -62.386 -8.172 C -62.293 -7.062 -62.246 -7.063 -61.296 -6.811 C -61.324 -8.079 -61.171 -8.045 -62.386 -8.172" style="fill-rule: evenodd; fill-opacity: 1; fill: rgb(255, 255, 255);"/>
          </g>
        </g>
        <g style="clip-path: url(#clippath0);" transform="matrix(1, 0, 0, 1, -10.407166, 283.595123)">
          <g transform="translate(223.3604 219.5549)">
            <path d="M 0 0 C 0 -5.21 -0.326 -10.231 3.604 -13.83 C 4.696 -14.83 5.789 -15.649 7.195 -16.232 C 8.111 -16.613 8.434 -16.685 9.404 -17.021 C 16.12 -19.35 20.506 -15.252 25.828 -11.66 C 30.634 -8.417 40.134 1.343 43.926 5.656 C 44.682 6.516 44.569 7.035 45.768 7.355 C 45.479 6.113 45.058 5.559 44.736 4.573 C 44.015 2.36 43.482 0.418 43.309 -1.898 C 43.04 -5.485 42.14 -6.405 43.733 -10.479 C 44.874 -13.396 46.692 -15.334 49.506 -16.693 C 53.565 -18.654 60.009 -18.399 62.982 -14.761 C 63.402 -14.248 63.639 -13.693 64.099 -13.153 L 72.62 -2.605 C 78.152 4.479 84.083 11.231 89.476 18.405 C 90.355 19.574 90.992 20.315 91.894 21.436 L 95.594 25.908 C 96.129 26.603 96.345 26.654 96.44 27.786 C 94.573 28.222 92.403 28.059 90.446 28.059 C 88.287 28.059 85.287 23.292 83.703 21.726 C 80.732 18.786 78.251 15.445 75.258 12.464 L 68.861 5.513 C 66.977 3.397 64.447 0.444 62.42 -1.396 L 58.409 -5.285 C 57.408 -6.285 56.703 -7.783 55.303 -7.899 C 55.438 -6.272 56.45 -4.761 57.296 -3.354 C 62.65 5.543 66.865 12.823 72.684 21.575 L 82.165 35.522 C 82.507 36.016 82.583 36.067 82.858 36.464 C 83.153 36.89 83.301 37.207 83.596 37.633 C 84.541 38.996 85.493 40.236 86.417 41.622 L 97.802 57.207 C 97.802 58.406 96.107 60.739 95.314 61.802 C 93.464 64.281 90.943 66.539 88.179 68.015 C 80.738 71.986 83.563 69.866 75.814 59.579 C 75.104 58.636 74.662 58.057 73.993 57.042 L 51.684 26.774 C 51.285 26.307 50.981 26.124 50.628 25.65 L 47.606 21.862 C 44.263 18.266 41.413 14.3 37.936 10.829 L 28.95 1.562 C 26.972 -0.425 18.197 -8.172 15.801 -8.172 C 13.971 -8.172 13.894 -5.445 13.894 -4.086 C 13.894 -1.142 16.512 2.674 17.693 4.646 L 24.705 16.431 C 27.106 20.248 30.009 23.729 32.335 27.598 C 33.194 29.025 33.979 30.072 34.87 31.328 L 50.436 53.356 C 53.689 57.677 54.115 57.407 50.787 62.226 C 46.185 68.89 45.909 64.081 45.324 62.827 C 44.701 61.494 44.432 60.95 43.316 60.203 C 43.572 63.273 44.964 65.725 42.252 68.401 C 41.843 68.805 39.625 70.01 38.958 70.01 C 37.684 70.01 33.997 63.386 33.182 62.164 L 14.763 32.91 C 11.235 27.27 8.164 21.385 4.743 15.689 C 3.486 13.597 2.917 10.768 1.896 8.456 C 1.482 7.519 1.354 6.948 0.984 5.827 C 0.583 4.613 0 1.455 0 0 M 33.509 55.572 C 32.592 54.958 32.448 54.657 31.819 53.721 L 26.511 45.681 C 26.059 44.921 25.745 44.279 25.323 43.599 C 24.835 42.811 22.712 40.157 23.374 39.495 C 23.957 38.912 24.625 40.338 25.027 40.897 C 26.673 43.184 33.344 53.595 33.509 55.572 M 31.874 47.127 C 32.164 48.371 31.931 48.104 32.964 48.217 C 32.7 47.229 32.819 47.407 31.874 47.127 M 26.698 38.955 C 26.782 39.961 29.298 43.847 30.124 45.064 C 30.654 45.847 30.946 46.335 31.874 46.583 C 31.435 44.697 29.571 42.202 28.46 40.462 C 27.805 39.437 28.087 39.07 26.698 38.955" style="fill-rule: evenodd; fill-opacity: 1; fill: rgb(255, 255, 0);"/>
          </g>
        </g>
        <g style="clip-path: url(#clippath0);" transform="matrix(1, 0, 0, 1, -10.407166, 283.595123)">
          <g transform="translate(161.5195 221.7346)">
            <path d="M 0 0 C 0 -3.282 1.619 -9.504 3.376 -12.151 C 4.821 -14.328 6.453 -15.859 8.49 -17.39 C 10.09 -18.593 11.569 -19.42 13.572 -19.936 C 16.764 -20.757 13.575 -21.248 20.432 -21.248 C 26.872 -21.248 24.488 -20.657 26.938 -20.126 C 27.842 -19.931 28.185 -19.886 29.069 -19.533 C 29.713 -19.275 30.239 -19.155 30.874 -18.886 L 36.182 -16.021 C 38.254 -14.669 40.341 -13.295 42.155 -11.642 C 45.032 -9.019 47.478 -8.541 50.627 -4.313 L 54.046 -0.105 C 55.917 2.414 57.526 5.191 59.112 7.904 C 59.773 9.035 60.163 10.27 60.751 11.441 C 61.072 12.08 61.167 12.421 61.481 13.163 C 62.82 16.32 64.613 19.186 65.369 22.624 C 65.7 24.127 66.206 25.295 66.414 26.755 C 66.589 27.988 67.226 29.921 66.415 30.71 C 64.647 32.431 62.34 33.898 60.214 35.148 C 57.126 36.965 53.094 40.044 49.309 40.044 C 46.838 40.044 43.809 39.412 42.076 38.561 C 40.312 37.692 37.948 36.293 37.05 34.597 C 37.379 34.105 41.101 30.237 41.409 30.237 C 43.069 30.237 45.017 32.238 46.629 30.553 C 47.566 29.574 47.329 28.046 46.947 26.88 L 46.401 24.973 C 45.531 22.419 44.522 19.815 43.268 17.482 L 33.622 1.793 L 30.308 -2.248 C 26.609 -5.902 21.018 -12.531 15.801 -12.531 C 14.159 -12.531 13.698 -11.256 13.178 -9.978 C 12.172 -7.507 12.285 -2.396 13.038 0.039 C 14.529 4.866 13.39 4.264 16.258 10.984 L 18.121 14.842 C 19.771 17.943 21.71 20.819 23.648 23.753 C 24.163 24.534 24.32 24.627 24.841 25.284 C 27.738 28.932 28.14 29.365 31.669 32.894 L 35.892 37.116 C 37.791 39.037 40.086 40.564 42.015 42.436 C 42.712 43.111 49.199 47.944 51.216 47.944 C 53.681 47.944 53.396 44.996 53.396 42.496 C 54.676 41.819 57.656 40.044 59.117 40.044 C 62.051 45.589 63.056 53.813 56.539 57.08 C 54.357 58.175 51.997 58.023 49.582 58.023 C 47.774 58.023 45.304 56.259 43.588 56.116 C 45.062 58.316 47.582 59.447 49.932 60.397 C 50.934 60.802 51.802 60.775 52.851 61.02 C 52.812 62.771 51.398 63.416 50.173 64.336 C 45.829 67.598 44.884 67.06 37.05 61.837 C 36.336 61.361 35.675 60.964 34.945 60.4 C 34.196 59.823 33.643 59.49 32.889 58.915 C 31.983 58.227 31.774 57.947 30.987 57.275 L 27.181 53.999 C 26.465 53.316 26.034 53.146 25.267 52.371 C 24.668 51.766 24.025 51.225 23.499 50.598 C 23.083 50.102 23.23 50.146 22.813 49.649 C 22.509 49.286 22.209 49.04 21.862 48.693 C 21.28 48.115 20.584 47.513 20.109 46.905 C 19.748 46.443 19.874 46.477 19.412 45.968 L 17.774 44.063 C 17.265 43.523 17.339 43.501 16.938 42.993 C 14.347 39.702 11.951 36.367 9.9 32.597 C 8.451 29.932 6.764 27.497 5.554 24.684 L 3.025 18.223 C 2.786 17.565 2.862 17.593 2.71 16.903 L 1.611 12.555 C 1.488 11.801 1.474 12.073 1.254 11.276 Z" style="fill-rule: evenodd; fill-opacity: 1; fill: rgb(255, 255, 0);"/>
          </g>
        </g>
        <g style="clip-path: url(#clippath0);" transform="matrix(1, 0, 0, 1, -10.407166, 283.595123)">
          <g transform="translate(266.4043 383.8186)">
            <path d="M 0 0 C 0 -1.604 1.417 -6.051 1.93 -8.15 L 9.629 -38.588 C 10.152 -40.551 10.503 -43.136 11.169 -44.13 C 12.54 -43.405 12.045 -43.468 12.732 -39.428 L 13.194 -34.986 C 13.299 -34.492 13.489 -34.064 13.549 -33.707 C 13.762 -32.445 13.67 -32.038 13.952 -30.841 L 15.575 -19.387 C 15.879 -16.376 16.91 -11.872 17.168 -8.451 L 18.093 -2.837 C 18.845 0.779 18.672 3.564 15.877 6.342 C 9.293 12.889 0 7.451 0 0" style="fill-rule: evenodd; fill-opacity: 1; fill: rgb(255, 255, 0);"/>
          </g>
        </g>
        <g style="clip-path: url(#clippath0);" transform="matrix(1, 0, 0, 1, -10.407166, 283.595123)">
          <g transform="translate(643.1719 294.468)">
            <path d="M 0 0 C 0 4.668 11.928 -6.488 14.319 -8.291 C 15.611 -9.266 16.622 -10.014 17.901 -10.976 C 20.045 -12.589 27.958 -18.251 29.695 -18.251 C 32.496 -18.251 35.864 -15.749 37.67 -13.968 C 38.063 -13.579 38.249 -13.439 38.555 -12.945 C 39.862 -10.825 39.1 -9.791 38.027 -7.195 C 37.224 -5.247 35.738 -3.137 34.147 -1.812 C 32.816 -0.704 32.586 -0.28 31.057 -1.09 C 31.17 -2.44 31.931 -3.122 32.517 -4.262 C 35.718 -10.495 32.644 -8.166 28.343 -5.711 L 11.128 7.041 C 8.448 9.006 6.755 10.818 3.209 10.143 C 1.226 9.765 -1.238 8.209 -2.694 7.053 C -4.25 5.816 -6.25 3.639 -5.29 1.54 C -4.035 -1.202 -2.322 -6.192 1.016 -7.197 C 4.824 -8.345 0 -2.34 0 0 M 6.538 5.993 C 6.581 6.126 6.872 6.515 6.987 6.169 C 7.014 6.088 7.125 6.092 7.163 6.073 L 8.565 5.295 C 9.746 4.518 9.82 4.532 10.08 3.814 C 9.504 4.119 6.799 5.498 6.538 5.993 M 17.708 -1.635 L 17.789 -1.716 C 17.784 -1.71 17.682 -1.661 17.708 -1.635 M 23.702 -11.986 C 25.014 -12.095 27.215 -13.654 27.788 -14.438 C 26.912 -14.364 26.239 -13.836 25.554 -13.402 C 24.873 -12.972 24.127 -12.566 23.702 -11.986" style="fill-rule: evenodd; fill-opacity: 1; fill: rgb(255, 255, 255);"/>
          </g>
        </g>
        <g style="clip-path: url(#clippath0);" transform="matrix(1, 0, 0, 1, -10.407166, 283.595123)">
          <g transform="translate(217.6396 357.9397)">
            <path d="M 0 0 C 0 -2.119 0.905 -3.959 2.286 -5.614 L 21.728 -21.859 C 22.48 -22.61 22.826 -22.847 23.664 -23.464 C 24.573 -24.135 24.745 -24.418 25.542 -25.127 C 26.41 -25.898 32.142 -31.397 29.068 -25.962 L 25.428 -18.977 C 24.766 -17.737 14.135 3.59 13.15 4.704 C 9.807 8.485 3.109 7.748 0.862 2.679 C 0.634 2.163 0 0.53 0 0" style="fill-rule: evenodd; fill-opacity: 1; fill: rgb(255, 255, 0);"/>
          </g>
        </g>
        <g style="clip-path: url(#clippath0);" transform="matrix(1, 0, 0, 1, -10.407166, 283.595123)">
          <g transform="translate(326.0659 371.5603)">
            <path d="M 0 0 C -2.523 0 -5.119 -0.672 -6.659 -2.876 C -8.804 -5.944 -7.772 -5.892 -8.912 -8.523 C -9.187 -9.158 -9.292 -9.292 -9.475 -9.867 C -9.683 -10.519 -9.681 -10.669 -9.923 -11.326 L -15.048 -26.086 C -15.656 -27.926 -16.374 -29.914 -17.06 -31.975 C -18.649 -36.749 -21.005 -41.89 -15.069 -34.51 L -7.59 -26.189 C -5.231 -23.267 -2.497 -20.846 -0.157 -17.822 C 3.084 -13.631 10.009 -9.423 5.072 -2.828 C 4.47 -2.024 3.806 -1.552 2.993 -1.093 C 2.483 -0.805 0.715 0 0 0" style="fill-rule: evenodd; fill-opacity: 1; fill: rgb(255, 255, 0);"/>
          </g>
        </g>
        <g style="clip-path: url(#clippath0);" transform="matrix(1, 0, 0, 1, -10.407166, 283.595123)">
          <g transform="translate(196.3901 321.9817)">
            <path d="M 0 0 C 0 -2.852 1.558 -4.133 3.844 -4.874 L 16.561 -9.319 C 18.216 -9.802 21.649 -11.408 23.157 -11.441 C 23.047 -10.131 22.805 -10.154 21.437 -9.074 L 8.24 2.792 C 4.885 6.167 0 3.862 0 0" style="fill-rule: evenodd; fill-opacity: 1; fill: rgb(255, 255, 0);"/>
          </g>
        </g>
        <g style="clip-path: url(#clippath0);" transform="matrix(1, 0, 0, 1, -10.407166, 283.595123)">
          <g transform="translate(337.7803 320.8918)">
            <path d="M 0 0 C 1.557 0.035 4.424 2.011 5.9 2.818 C 7.915 3.918 9.726 4.959 11.716 5.991 C 12.965 6.639 19.312 10.094 19.969 10.815 C 21.713 12.731 21.792 15.454 19.595 17.415 C 19.595 17.415 19.03 17.851 18.978 17.887 C 17.109 19.145 14.663 18.64 13.135 17.103 L 1.673 2.686 C 0.995 1.852 0.11 1.324 0 0" style="fill-rule: evenodd; fill-opacity: 1; fill: rgb(255, 255, 0);"/>
          </g>
        </g>
      </g>
    </g>
  </g>
</svg>